<svg width="108" height="25" viewBox="0 0 108 25" fill="none" xmlns="http://www.w3.org/2000/svg">
<path d="M29.8594 14.7227C29.8594 14.8138 29.8431 14.9017 29.8105 14.9863C29.7845 15.0645 29.752 15.1328 29.7129 15.1914C29.6803 15.25 29.6478 15.2988 29.6152 15.3379C29.5892 15.377 29.5762 15.3997 29.5762 15.4062C29.5762 15.4714 29.5957 15.5397 29.6348 15.6113C29.6803 15.6829 29.7031 15.7611 29.7031 15.8457C29.7031 15.8848 29.6868 15.9108 29.6543 15.9238C29.6283 15.9368 29.599 15.9434 29.5664 15.9434C29.5078 15.9434 29.459 15.9368 29.4199 15.9238C29.4264 16.0475 29.4362 16.168 29.4492 16.2852C29.4688 16.4023 29.4785 16.5228 29.4785 16.6465C29.4785 16.8353 29.459 16.959 29.4199 17.0176C29.3874 17.0697 29.3516 17.1022 29.3125 17.1152C29.2734 17.1283 29.2344 17.1445 29.1953 17.1641C29.1628 17.1771 29.1465 17.2357 29.1465 17.3398C29.1465 17.3984 29.1042 17.4733 29.0195 17.5645C28.9414 17.6556 28.8438 17.7467 28.7266 17.8379C28.6159 17.929 28.4987 18.0072 28.375 18.0723C28.2578 18.1374 28.1634 18.1699 28.0918 18.1699C28.0723 18.1699 28.0495 18.1634 28.0234 18.1504C28.0234 18.2025 28.0267 18.2578 28.0332 18.3164C28.0397 18.375 28.043 18.4303 28.043 18.4824C28.043 18.5671 28.0169 18.6257 27.9648 18.6582C27.9128 18.6842 27.8542 18.7103 27.7891 18.7363C27.6914 18.7819 27.5905 18.8503 27.4863 18.9414C27.3822 19.026 27.2747 19.1139 27.1641 19.2051C27.0534 19.2962 26.9395 19.3743 26.8223 19.4395C26.7116 19.5111 26.5944 19.5469 26.4707 19.5469C26.3665 19.5469 26.2689 19.5208 26.1777 19.4688C26.0931 19.4167 25.9922 19.3906 25.875 19.3906C25.7708 19.3906 25.6829 19.4036 25.6113 19.4297C25.5397 19.4622 25.4714 19.4948 25.4062 19.5273C25.3477 19.5664 25.2858 19.599 25.2207 19.625C25.1556 19.6576 25.0807 19.6738 24.9961 19.6738C24.8268 19.6738 24.6576 19.6283 24.4883 19.5371C24.319 19.4525 24.1562 19.3841 24 19.332C23.9089 19.2995 23.8112 19.2734 23.707 19.2539C23.6029 19.2409 23.502 19.2246 23.4043 19.2051C23.3066 19.1855 23.2122 19.153 23.1211 19.1074C23.0365 19.0684 22.9616 19.0098 22.8965 18.9316C22.7598 18.7624 22.6003 18.6224 22.418 18.5117C22.2357 18.401 22.0501 18.2969 21.8613 18.1992C21.6725 18.1016 21.4902 18.0007 21.3145 17.8965C21.1387 17.7858 20.9857 17.6426 20.8555 17.4668C20.7578 17.3301 20.6471 17.1836 20.5234 17.0273C20.3997 16.8646 20.2826 16.6953 20.1719 16.5195C20.0677 16.3438 19.9798 16.1647 19.9082 15.9824C19.8366 15.8001 19.8008 15.6211 19.8008 15.4453C19.8008 15.3151 19.8138 15.1882 19.8398 15.0645C19.8659 14.9408 19.8919 14.8171 19.918 14.6934C19.9505 14.5632 19.9798 14.4362 20.0059 14.3125C20.0319 14.1888 20.0449 14.0618 20.0449 13.9316V13.8242C20.0449 13.7982 20.0352 13.7689 20.0156 13.7363C19.9961 13.7038 19.9733 13.6745 19.9473 13.6484C19.9277 13.6159 19.9049 13.5898 19.8789 13.5703C19.8594 13.5443 19.8464 13.5312 19.8398 13.5312C19.8268 13.5312 19.8203 13.5345 19.8203 13.541C19.8268 13.4824 19.8431 13.3945 19.8691 13.2773C19.9017 13.1536 19.9375 13.0299 19.9766 12.9062C20.0156 12.776 20.0547 12.6589 20.0938 12.5547C20.1328 12.444 20.1686 12.3724 20.2012 12.3398C20.2402 12.3073 20.276 12.2747 20.3086 12.2422C20.3477 12.2031 20.3672 12.1543 20.3672 12.0957C20.3672 12.0371 20.3639 11.9818 20.3574 11.9297C20.3509 11.8711 20.3477 11.8125 20.3477 11.7539C20.3477 11.6758 20.3574 11.6302 20.377 11.6172C20.3965 11.5977 20.4225 11.5879 20.4551 11.5879C20.4876 11.5879 20.5202 11.5846 20.5527 11.5781C20.5853 11.5651 20.6178 11.5293 20.6504 11.4707C20.709 11.3535 20.7643 11.2461 20.8164 11.1484C20.875 11.0443 20.9368 10.9499 21.002 10.8652C21.0671 10.7806 21.1419 10.7025 21.2266 10.6309C21.3112 10.5592 21.4154 10.4909 21.5391 10.4258C21.6432 10.3672 21.7441 10.2956 21.8418 10.2109C21.946 10.1263 22.0501 10.0417 22.1543 9.95703C22.2585 9.8724 22.3626 9.80078 22.4668 9.74219C22.5775 9.68359 22.6947 9.6543 22.8184 9.6543C22.9941 9.6543 23.1634 9.625 23.3262 9.56641C23.4954 9.5013 23.6647 9.45247 23.834 9.41992C24.1009 9.38086 24.3646 9.34505 24.625 9.3125C24.8919 9.27344 25.1621 9.25391 25.4355 9.25391C25.5853 9.25391 25.7676 9.27995 25.9824 9.33203C26.1973 9.3776 26.4154 9.43945 26.6367 9.51758C26.8646 9.5957 27.0762 9.68359 27.2715 9.78125C27.4733 9.87891 27.6328 9.97656 27.75 10.0742V10.1035C27.75 10.1947 27.7337 10.2891 27.7012 10.3867C27.6686 10.4779 27.6523 10.569 27.6523 10.6602C27.6523 10.6732 27.6523 10.6862 27.6523 10.6992C27.6523 10.7122 27.6589 10.7188 27.6719 10.7188C27.7826 10.7188 27.8867 10.7057 27.9844 10.6797C28.0885 10.6471 28.196 10.6309 28.3066 10.6309C28.3197 10.7415 28.3685 10.8164 28.4531 10.8555C28.5378 10.8945 28.6224 10.9303 28.707 10.9629C28.7852 11.002 28.8568 11.0736 28.9219 11.1777C28.9935 11.2754 29.0586 11.3893 29.1172 11.5195C29.1758 11.6432 29.2311 11.7669 29.2832 11.8906C29.3418 12.0143 29.3971 12.1152 29.4492 12.1934C29.5013 12.2715 29.5469 12.3659 29.5859 12.4766C29.6315 12.5807 29.6673 12.6914 29.6934 12.8086C29.7259 12.9258 29.7487 13.043 29.7617 13.1602C29.7747 13.2708 29.7812 13.375 29.7812 13.4727C29.7812 13.6029 29.7552 13.7135 29.7031 13.8047C29.6576 13.8893 29.6055 13.9674 29.5469 14.0391C29.4883 14.1042 29.4329 14.1693 29.3809 14.2344C29.3353 14.293 29.3125 14.3613 29.3125 14.4395C29.3125 14.485 29.3223 14.5273 29.3418 14.5664C29.3613 14.6055 29.3874 14.6413 29.4199 14.6738C29.4329 14.6673 29.459 14.6608 29.498 14.6543C29.5436 14.6478 29.5664 14.6283 29.5664 14.5957V14.5859C29.5664 14.5339 29.5436 14.485 29.498 14.4395C29.459 14.3939 29.4395 14.3385 29.4395 14.2734C29.4395 14.2604 29.446 14.2409 29.459 14.2148C29.472 14.1823 29.4883 14.166 29.5078 14.166C29.5469 14.166 29.5859 14.1921 29.625 14.2441C29.6641 14.2897 29.6999 14.3418 29.7324 14.4004C29.7715 14.4525 29.8008 14.498 29.8203 14.5371C29.8398 14.5762 29.8496 14.5892 29.8496 14.5762L29.8398 14.5664C29.8464 14.599 29.8496 14.6283 29.8496 14.6543C29.8561 14.6738 29.8594 14.6966 29.8594 14.7227ZM28.8828 14.8008C28.8828 14.6966 28.8438 14.6348 28.7656 14.6152C28.6875 14.5892 28.5996 14.5729 28.502 14.5664C28.4043 14.5599 28.3066 14.5501 28.209 14.5371C28.1178 14.5241 28.056 14.4753 28.0234 14.3906V14.293C28.0234 14.1497 28.0039 13.9837 27.9648 13.7949C27.9323 13.5996 27.89 13.4043 27.8379 13.209C27.7858 13.0072 27.7305 12.8118 27.6719 12.623C27.6133 12.4277 27.5579 12.2552 27.5059 12.1055C27.4538 11.9557 27.4115 11.8353 27.3789 11.7441C27.3464 11.653 27.3301 11.6074 27.3301 11.6074C27.278 11.6204 27.2357 11.627 27.2031 11.627C27.0924 11.627 26.9948 11.6042 26.9102 11.5586C26.832 11.513 26.7409 11.4642 26.6367 11.4121C26.5391 11.36 26.4154 11.3112 26.2656 11.2656C26.1224 11.2201 25.9303 11.1973 25.6895 11.1973C25.4225 11.1973 25.1589 11.181 24.8984 11.1484C24.638 11.1094 24.3743 11.0898 24.1074 11.0898C23.7428 11.0898 23.401 11.1745 23.082 11.3438C22.763 11.5065 22.4831 11.7246 22.2422 11.998C22.0013 12.265 21.8125 12.5677 21.6758 12.9062C21.5391 13.2448 21.4707 13.5866 21.4707 13.9316C21.4707 14.0749 21.474 14.2441 21.4805 14.4395C21.487 14.6283 21.5033 14.8203 21.5293 15.0156C21.5553 15.2044 21.5977 15.3835 21.6562 15.5527C21.7148 15.7155 21.7962 15.8392 21.9004 15.9238V16.1973C21.9264 16.2233 21.959 16.2396 21.998 16.2461C22.0436 16.2461 22.0859 16.2461 22.125 16.2461C22.1706 16.2461 22.2096 16.2526 22.2422 16.2656C22.2747 16.2721 22.3008 16.2982 22.3203 16.3438C22.4049 16.5846 22.5156 16.7702 22.6523 16.9004C22.7891 17.0241 22.9355 17.1315 23.0918 17.2227C23.248 17.3073 23.4043 17.3952 23.5605 17.4863C23.7168 17.571 23.86 17.6979 23.9902 17.8672C24.0423 17.8607 24.0977 17.8574 24.1562 17.8574C24.2148 17.8509 24.2702 17.8477 24.3223 17.8477C24.5306 17.8477 24.7324 17.8639 24.9277 17.8965C25.1296 17.9225 25.3314 17.9355 25.5332 17.9355C25.748 17.9355 25.9401 17.8802 26.1094 17.7695C26.2852 17.6589 26.4349 17.5189 26.5586 17.3496C26.6367 17.2389 26.7083 17.1445 26.7734 17.0664C26.8385 16.9883 26.9036 16.9167 26.9688 16.8516C27.0404 16.7799 27.1152 16.7148 27.1934 16.6562C27.278 16.5911 27.3757 16.5195 27.4863 16.4414C27.5254 16.4154 27.571 16.3828 27.623 16.3438C27.6816 16.3047 27.737 16.2624 27.7891 16.2168C27.8477 16.1647 27.8965 16.1159 27.9355 16.0703C27.9746 16.0182 27.9941 15.9694 27.9941 15.9238C27.9941 15.8652 27.9844 15.8066 27.9648 15.748C27.9518 15.6895 27.9453 15.6309 27.9453 15.5723C27.9453 15.5072 27.9551 15.429 27.9746 15.3379C27.9941 15.2467 28.0234 15.1589 28.0625 15.0742C28.1081 14.9896 28.1602 14.9212 28.2188 14.8691C28.2839 14.8105 28.362 14.7812 28.4531 14.7812C28.5247 14.7812 28.5964 14.7975 28.668 14.8301C28.7396 14.8626 28.8047 14.9017 28.8633 14.9473C28.8763 14.8822 28.8828 14.8333 28.8828 14.8008ZM41.9883 11.8711C41.9883 12.0013 41.9622 12.112 41.9102 12.2031C41.8581 12.2943 41.7995 12.3822 41.7344 12.4668C41.6758 12.5449 41.6139 12.6263 41.5488 12.7109C41.4902 12.7956 41.4512 12.8965 41.4316 13.0137C41.373 12.9876 41.3112 12.9714 41.2461 12.9648C41.1875 12.9583 41.1257 12.9551 41.0605 12.9551C40.9043 12.9551 40.748 12.9681 40.5918 12.9941C40.4421 13.0137 40.2923 13.0234 40.1426 13.0234C39.9668 13.0234 39.8203 12.9714 39.7031 12.8672C39.5924 12.7565 39.5013 12.623 39.4297 12.4668C39.3646 12.3105 39.319 12.1445 39.293 11.9688C39.2669 11.7865 39.2539 11.6237 39.2539 11.4805C39.2539 11.2982 39.2832 11.1126 39.3418 10.9238C39.2897 10.9043 39.2441 10.8945 39.2051 10.8945C39.1204 10.8945 39.0586 10.9206 39.0195 10.9727C38.987 11.0247 38.9382 11.0508 38.873 11.0508C38.8145 11.0508 38.7624 11.0312 38.7168 10.9922C38.6712 10.9466 38.6159 10.9238 38.5508 10.9238C38.4531 10.9238 38.3294 10.9564 38.1797 11.0215C38.0365 11.0801 37.8965 11.1582 37.7598 11.2559C37.623 11.3535 37.5026 11.4609 37.3984 11.5781C37.3008 11.6888 37.252 11.7962 37.252 11.9004C37.1152 11.9134 36.985 11.9525 36.8613 12.0176C36.7441 12.0762 36.6302 12.1413 36.5195 12.2129C36.4349 12.265 36.3633 12.3464 36.3047 12.457C36.2461 12.5677 36.1908 12.6882 36.1387 12.8184C36.0931 12.9421 36.0443 13.069 35.9922 13.1992C35.9466 13.3294 35.8913 13.4368 35.8262 13.5215C35.7155 13.6647 35.6178 13.8112 35.5332 13.9609C35.4551 14.1042 35.416 14.2669 35.416 14.4492C35.416 14.6771 35.4518 14.9082 35.5234 15.1426C35.5951 15.377 35.6309 15.6146 35.6309 15.8555C35.6309 16.0117 35.6178 16.168 35.5918 16.3242C35.5723 16.4805 35.5625 16.6335 35.5625 16.7832C35.5625 16.9655 35.5951 17.112 35.6602 17.2227C35.7253 17.3333 35.8132 17.4212 35.9238 17.4863C36.0345 17.5449 36.1615 17.584 36.3047 17.6035C36.4479 17.623 36.5944 17.6328 36.7441 17.6328C36.9069 17.6328 37.0632 17.6296 37.2129 17.623C37.3691 17.61 37.5124 17.6035 37.6426 17.6035C37.6882 17.6556 37.7142 17.7044 37.7207 17.75C37.7272 17.7956 37.724 17.8444 37.7109 17.8965C37.7044 17.9421 37.6914 17.9909 37.6719 18.043C37.6589 18.0885 37.6523 18.1439 37.6523 18.209C37.6523 18.235 37.6589 18.2676 37.6719 18.3066C37.7695 18.3066 37.8542 18.2839 37.9258 18.2383C37.9974 18.1927 38.0495 18.1211 38.082 18.0234C38.1276 18.0365 38.1667 18.056 38.1992 18.082C38.2383 18.1081 38.2578 18.1471 38.2578 18.1992C38.2578 18.2383 38.248 18.2773 38.2285 18.3164C38.209 18.349 38.1862 18.3815 38.1602 18.4141C38.1341 18.4466 38.1113 18.4824 38.0918 18.5215C38.0723 18.554 38.0625 18.5931 38.0625 18.6387C38.0625 18.6647 38.0658 18.694 38.0723 18.7266C38.0788 18.7526 38.0885 18.7754 38.1016 18.7949C38.069 18.847 38.0234 18.8828 37.9648 18.9023C37.9062 18.9219 37.8477 18.9316 37.7891 18.9316C37.6849 18.9316 37.597 18.9154 37.5254 18.8828C37.4603 18.8503 37.3984 18.8145 37.3398 18.7754C37.2878 18.7363 37.2389 18.7005 37.1934 18.668C37.1478 18.6354 37.0924 18.6191 37.0273 18.6191C37.0013 18.6191 36.9622 18.6257 36.9102 18.6387C36.8581 18.6517 36.806 18.668 36.7539 18.6875C36.7018 18.707 36.6562 18.7331 36.6172 18.7656C36.5781 18.7917 36.5586 18.8177 36.5586 18.8438C36.5586 18.8958 36.5749 18.9414 36.6074 18.9805C36.6465 19.0195 36.666 19.0651 36.666 19.1172C36.666 19.1628 36.6497 19.1986 36.6172 19.2246C36.5846 19.2507 36.5456 19.2669 36.5 19.2734C36.4544 19.2865 36.4056 19.293 36.3535 19.293C36.3079 19.2995 36.2689 19.3027 36.2363 19.3027C35.9824 19.3027 35.7285 19.2734 35.4746 19.2148C35.2272 19.1628 34.9766 19.1367 34.7227 19.1367C34.6055 19.1367 34.4883 19.1628 34.3711 19.2148C34.2539 19.2669 34.1302 19.293 34 19.293C33.9284 19.293 33.873 19.2767 33.834 19.2441C33.8014 19.2181 33.7721 19.1855 33.7461 19.1465C33.7201 19.1074 33.6908 19.0716 33.6582 19.0391C33.6257 19.013 33.5768 19 33.5117 19C33.388 19 33.2643 19.013 33.1406 19.0391C33.0234 19.0651 32.903 19.0911 32.7793 19.1172C32.6621 19.1497 32.5417 19.1758 32.418 19.1953C32.3008 19.2214 32.1803 19.2344 32.0566 19.2344C31.9915 19.2344 31.9134 19.2246 31.8223 19.2051C31.7311 19.1921 31.6432 19.166 31.5586 19.127C31.474 19.0879 31.4023 19.0391 31.3438 18.9805C31.2852 18.9219 31.2559 18.8503 31.2559 18.7656C31.2559 18.7135 31.2852 18.6452 31.3438 18.5605C31.4089 18.4759 31.4805 18.3945 31.5586 18.3164C31.6367 18.2318 31.7148 18.1602 31.793 18.1016C31.8711 18.043 31.9297 18.0137 31.9688 18.0137C32.0729 18.0137 32.1738 18.0169 32.2715 18.0234C32.3757 18.0299 32.4831 18.0332 32.5938 18.0332C32.7695 18.0332 32.9453 18.0072 33.1211 17.9551C33.3034 17.8965 33.4661 17.8151 33.6094 17.7109C33.7591 17.6068 33.8796 17.4766 33.9707 17.3203C34.0618 17.1641 34.1074 16.9883 34.1074 16.793C34.1074 16.7083 34.1009 16.627 34.0879 16.5488C34.0749 16.4642 34.0684 16.3796 34.0684 16.2949C34.0684 16.1257 34.0879 15.9564 34.127 15.7871C34.166 15.6178 34.1855 15.4486 34.1855 15.2793C34.1855 15.0514 34.1595 14.8203 34.1074 14.5859C34.0618 14.3451 34.0391 14.1042 34.0391 13.8633C34.0391 13.6484 34.0423 13.4368 34.0488 13.2285C34.0618 13.0137 34.0684 12.7988 34.0684 12.584C34.0684 12.4863 34.0651 12.3431 34.0586 12.1543C34.0521 11.9655 34.0293 11.7767 33.9902 11.5879C33.9577 11.3991 33.9023 11.2331 33.8242 11.0898C33.7526 10.9466 33.6517 10.875 33.5215 10.875C33.3783 10.875 33.235 10.8913 33.0918 10.9238C32.9486 10.9564 32.8021 10.9727 32.6523 10.9727C32.5417 10.9727 32.4115 10.9661 32.2617 10.9531C32.112 10.9336 31.9688 10.901 31.832 10.8555C31.6953 10.8034 31.5781 10.7318 31.4805 10.6406C31.3828 10.5495 31.334 10.429 31.334 10.2793C31.334 10.1165 31.3568 9.98633 31.4023 9.88867C31.4479 9.78451 31.5065 9.70638 31.5781 9.6543C31.6562 9.60221 31.7441 9.56641 31.8418 9.54688C31.946 9.52734 32.0566 9.51758 32.1738 9.51758C32.278 9.51758 32.3854 9.52083 32.4961 9.52734C32.6068 9.53385 32.7142 9.53711 32.8184 9.53711C33.0267 9.53711 33.2318 9.52734 33.4336 9.50781C33.6419 9.48177 33.8503 9.46875 34.0586 9.46875C34.2018 9.46875 34.3451 9.47526 34.4883 9.48828C34.6315 9.5013 34.7715 9.5306 34.9082 9.57617C35.0319 9.61523 35.123 9.6901 35.1816 9.80078C35.2402 9.90495 35.2923 10.0124 35.3379 10.123C35.39 10.2337 35.4486 10.3346 35.5137 10.4258C35.5788 10.5104 35.6829 10.5527 35.8262 10.5527C35.8913 10.5527 35.9499 10.5365 36.002 10.5039C36.0605 10.4648 36.1159 10.4225 36.168 10.377C36.2201 10.3314 36.2721 10.2891 36.3242 10.25C36.3763 10.2109 36.4382 10.1849 36.5098 10.1719C36.653 10.1523 36.7832 10.1068 36.9004 10.0352C37.0241 9.96354 37.1445 9.89193 37.2617 9.82031C37.3789 9.7487 37.4961 9.68359 37.6133 9.625C37.737 9.56641 37.8704 9.53711 38.0137 9.53711C38.0983 9.53711 38.2025 9.52734 38.3262 9.50781C38.4564 9.48828 38.5833 9.46224 38.707 9.42969C38.8372 9.39062 38.9577 9.34505 39.0684 9.29297C39.1855 9.24089 39.2767 9.18229 39.3418 9.11719C39.5176 9.13021 39.7227 9.17253 39.957 9.24414C40.1979 9.31576 40.4258 9.41341 40.6406 9.53711C40.862 9.6543 41.054 9.79427 41.2168 9.95703C41.3796 10.1198 41.474 10.3021 41.5 10.5039C41.5195 10.6276 41.5553 10.7448 41.6074 10.8555C41.6595 10.9661 41.7116 11.0768 41.7637 11.1875C41.8223 11.2917 41.8743 11.4023 41.9199 11.5195C41.9655 11.6302 41.9883 11.7474 41.9883 11.8711ZM52.0176 15.5332C52.0176 15.7415 51.9948 15.9401 51.9492 16.1289C51.9036 16.3112 51.8516 16.4935 51.793 16.6758C51.7344 16.8516 51.6725 17.0339 51.6074 17.2227C51.5488 17.4049 51.5033 17.5938 51.4707 17.7891C51.4121 18.1146 51.2949 18.3848 51.1191 18.5996C50.9434 18.8145 50.7318 18.9837 50.4844 19.1074C50.237 19.2376 49.9603 19.332 49.6543 19.3906C49.3548 19.4557 49.0456 19.5046 48.7266 19.5371C48.4076 19.5697 48.0918 19.5924 47.7793 19.6055C47.4733 19.6185 47.1901 19.6413 46.9297 19.6738C46.832 19.6022 46.7507 19.5241 46.6855 19.4395C46.6204 19.3548 46.5586 19.2734 46.5 19.1953C46.4414 19.1237 46.3763 19.0618 46.3047 19.0098C46.2331 18.9642 46.1387 18.9414 46.0215 18.9414C45.9824 18.9414 45.9499 18.8893 45.9238 18.7852C45.9043 18.6745 45.8848 18.554 45.8652 18.4238C45.8457 18.2871 45.8229 18.1667 45.7969 18.0625C45.7773 17.9518 45.748 17.8965 45.709 17.8965C45.5592 17.8965 45.4388 17.8639 45.3477 17.7988C45.263 17.7337 45.1947 17.6523 45.1426 17.5547C45.097 17.4505 45.0645 17.3366 45.0449 17.2129C45.0319 17.0892 45.0254 16.9688 45.0254 16.8516C45.0254 16.7604 45.0059 16.6758 44.9668 16.5977C44.9277 16.5195 44.8854 16.4447 44.8398 16.373C44.7943 16.2949 44.752 16.2168 44.7129 16.1387C44.6738 16.0605 44.6543 15.9792 44.6543 15.8945C44.6543 15.7969 44.6576 15.6764 44.6641 15.5332C44.6771 15.3835 44.6868 15.2305 44.6934 15.0742C44.7064 14.918 44.7161 14.765 44.7227 14.6152C44.7357 14.4655 44.7422 14.3418 44.7422 14.2441C44.7422 14.127 44.7552 14.0293 44.7812 13.9512C44.8138 13.873 44.8496 13.8047 44.8887 13.7461C44.9277 13.6875 44.9603 13.6354 44.9863 13.5898C45.0189 13.5443 45.0352 13.4922 45.0352 13.4336C45.0352 13.3555 45.0156 13.2904 44.9766 13.2383C44.944 13.1862 44.9277 13.1341 44.9277 13.082C44.9277 13.0104 44.9505 12.9421 44.9961 12.877C45.0417 12.8053 45.0742 12.7337 45.0938 12.6621C45.1654 12.3757 45.2012 12.0924 45.2012 11.8125C45.2012 11.7539 45.1979 11.6986 45.1914 11.6465C45.1914 11.5879 45.1882 11.5326 45.1816 11.4805C45.0319 11.3568 44.8659 11.2786 44.6836 11.2461C44.5013 11.207 44.319 11.181 44.1367 11.168C43.9544 11.1484 43.7786 11.1257 43.6094 11.0996C43.4401 11.0736 43.2969 11.0052 43.1797 10.8945C43.082 10.8034 42.9941 10.7025 42.916 10.5918C42.8379 10.4746 42.7337 10.3965 42.6035 10.3574C42.5124 10.3249 42.4342 10.2826 42.3691 10.2305C42.3105 10.1719 42.2812 10.0905 42.2812 9.98633C42.2812 9.83008 42.3268 9.71289 42.418 9.63477C42.5156 9.55013 42.6296 9.48503 42.7598 9.43945C42.89 9.38737 43.0234 9.34505 43.1602 9.3125C43.3034 9.27344 43.4238 9.2181 43.5215 9.14648C43.6191 9.07487 43.7363 9.03906 43.873 9.03906C43.9316 9.03906 43.987 9.04232 44.0391 9.04883C44.0977 9.04883 44.1562 9.04883 44.2148 9.04883C44.3776 9.04883 44.5111 9.02279 44.6152 8.9707C44.7259 8.91211 44.8105 8.83724 44.8691 8.74609C44.9342 8.64844 44.9766 8.53776 44.9961 8.41406C45.0221 8.29036 45.0352 8.1569 45.0352 8.01367C45.0352 7.80534 45.0221 7.60352 44.9961 7.4082C44.9701 7.21289 44.957 7.01107 44.957 6.80273C44.957 6.56185 44.9896 6.34049 45.0547 6.13867C45.1198 5.93685 45.2435 5.7513 45.4258 5.58203C45.4648 5.54948 45.5072 5.50716 45.5527 5.45508C45.5983 5.40299 45.6471 5.35417 45.6992 5.30859C45.7513 5.25651 45.8034 5.21419 45.8555 5.18164C45.9141 5.14909 45.9727 5.13281 46.0312 5.13281C46.0703 5.13281 46.1029 5.14258 46.1289 5.16211C46.1615 5.17513 46.194 5.19466 46.2266 5.2207C46.3698 5.36393 46.4609 5.47135 46.5 5.54297C46.5456 5.60807 46.5684 5.6862 46.5684 5.77734C46.5684 5.82943 46.5651 5.88802 46.5586 5.95312C46.5586 6.01172 46.5586 6.08984 46.5586 6.1875C46.5586 6.39583 46.5846 6.60091 46.6367 6.80273C46.6888 7.00456 46.7148 7.17708 46.7148 7.32031C46.7148 7.44401 46.6888 7.56445 46.6367 7.68164C46.5911 7.79232 46.5684 7.90951 46.5684 8.0332C46.5684 8.12435 46.5879 8.20898 46.627 8.28711C46.6725 8.35872 46.7214 8.43034 46.7734 8.50195C46.832 8.57357 46.8841 8.64844 46.9297 8.72656C46.9753 8.79818 46.998 8.88281 46.998 8.98047C47.0632 9.02604 47.2096 9.06836 47.4375 9.10742C47.6654 9.13997 47.9193 9.16927 48.1992 9.19531C48.4792 9.21484 48.7624 9.23112 49.0488 9.24414C49.3353 9.25716 49.5729 9.26367 49.7617 9.26367C49.931 9.26367 50.0612 9.27669 50.1523 9.30273C50.2435 9.32878 50.3184 9.35807 50.377 9.39062C50.4421 9.41667 50.5007 9.44596 50.5527 9.47852C50.6048 9.51107 50.6732 9.5306 50.7578 9.53711C50.862 9.55013 50.9499 9.57943 51.0215 9.625C51.0996 9.66406 51.1387 9.74544 51.1387 9.86914C51.1387 10.0254 51.0964 10.1491 51.0117 10.2402C50.9336 10.3314 50.8327 10.3997 50.709 10.4453C50.5918 10.4909 50.4648 10.5202 50.3281 10.5332C50.1914 10.5397 50.0645 10.543 49.9473 10.543C49.7585 10.543 49.5697 10.5365 49.3809 10.5234C49.1921 10.5104 49.0033 10.5039 48.8145 10.5039C48.502 10.5039 48.2188 10.5332 47.9648 10.5918C47.7109 10.6504 47.4896 10.748 47.3008 10.8848C47.1185 11.0215 46.9753 11.2038 46.8711 11.4316C46.7734 11.653 46.7246 11.9329 46.7246 12.2715C46.7246 12.6035 46.7441 12.929 46.7832 13.248C46.8288 13.5671 46.8516 13.8926 46.8516 14.2246C46.8516 14.5371 46.8548 14.7878 46.8613 14.9766C46.8743 15.1654 46.9134 15.3249 46.9785 15.4551C47.0632 15.6439 47.1315 15.8587 47.1836 16.0996C47.2357 16.3405 47.3008 16.5684 47.3789 16.7832C47.4635 16.998 47.5775 17.1803 47.7207 17.3301C47.8704 17.4733 48.0885 17.5449 48.375 17.5449C48.4727 17.5449 48.6029 17.5319 48.7656 17.5059C48.9284 17.4798 49.0911 17.4408 49.2539 17.3887C49.4167 17.3301 49.5566 17.2585 49.6738 17.1738C49.791 17.0827 49.8496 16.972 49.8496 16.8418C49.8496 16.7311 49.8171 16.6204 49.752 16.5098C49.6868 16.3926 49.6543 16.2689 49.6543 16.1387C49.6543 16.0475 49.6738 15.9694 49.7129 15.9043C49.7585 15.8327 49.8138 15.7708 49.8789 15.7188C49.9505 15.6602 50.0221 15.6113 50.0938 15.5723C50.1719 15.5267 50.2467 15.4876 50.3184 15.4551C50.4355 15.3053 50.5755 15.1816 50.7383 15.084C50.9076 14.9798 51.0866 14.9277 51.2754 14.9277C51.4056 14.9277 51.5293 14.9505 51.6465 14.9961C51.7702 15.0417 51.8841 15.1003 51.9883 15.1719C52.0078 15.2891 52.0176 15.4095 52.0176 15.5332ZM63.5996 8.14062L63.5508 8.15039C63.4792 8.15039 63.4173 8.13086 63.3652 8.0918C63.3132 8.04622 63.2546 8.01693 63.1895 8.00391L63.1797 8.04297C63.1797 8.09505 63.196 8.14388 63.2285 8.18945C63.2611 8.23503 63.2969 8.27734 63.3359 8.31641C63.375 8.35547 63.4108 8.39779 63.4434 8.44336C63.4759 8.48242 63.4922 8.52148 63.4922 8.56055C63.4922 8.61914 63.4531 8.65169 63.375 8.6582C63.3034 8.66471 63.248 8.67448 63.209 8.6875C63.1309 8.70703 63.069 8.75586 63.0234 8.83398C62.9779 8.9056 62.9225 8.98698 62.8574 9.07812C62.7988 9.16276 62.7174 9.24089 62.6133 9.3125C62.5156 9.3776 62.3757 9.41016 62.1934 9.41016C61.9655 9.41016 61.7376 9.35807 61.5098 9.25391C61.2493 9.13021 61.0605 8.98047 60.9434 8.80469C60.8262 8.6224 60.748 8.43359 60.709 8.23828C60.6699 8.04297 60.6471 7.85091 60.6406 7.66211C60.6341 7.4668 60.6113 7.29102 60.5723 7.13477C60.5332 6.97852 60.4583 6.85482 60.3477 6.76367C60.237 6.66602 60.0547 6.61719 59.8008 6.61719C59.5664 6.61719 59.319 6.64648 59.0586 6.70508C58.7982 6.75716 58.5573 6.84831 58.3359 6.97852C58.1211 7.10221 57.9421 7.26497 57.7988 7.4668C57.6556 7.66211 57.584 7.89974 57.584 8.17969C57.584 8.48568 57.597 8.72331 57.623 8.89258C57.6491 9.05534 57.7044 9.17578 57.7891 9.25391C57.8737 9.32552 57.9974 9.36784 58.1602 9.38086C58.3229 9.38737 58.541 9.39062 58.8145 9.39062C58.8665 9.39062 58.9382 9.42969 59.0293 9.50781C59.127 9.57943 59.2214 9.66732 59.3125 9.77148C59.4102 9.86914 59.4915 9.97005 59.5566 10.0742C59.6283 10.1784 59.6641 10.263 59.6641 10.3281C59.6641 10.4779 59.599 10.5951 59.4688 10.6797C59.3451 10.7578 59.1953 10.8164 59.0195 10.8555C58.8438 10.8945 58.6647 10.9173 58.4824 10.9238C58.3001 10.9303 58.1569 10.9336 58.0527 10.9336C57.9421 10.9336 57.8509 10.9564 57.7793 11.002C57.7142 11.0475 57.6654 11.1061 57.6328 11.1777C57.6003 11.2493 57.5775 11.3307 57.5645 11.4219C57.5579 11.513 57.5547 11.6042 57.5547 11.6953C57.5547 12.1315 57.5775 12.5677 57.623 13.0039C57.6751 13.4336 57.7012 13.8698 57.7012 14.3125C57.7012 14.5664 57.6654 14.7747 57.5938 14.9375C57.5286 15.1003 57.4961 15.2337 57.4961 15.3379C57.4961 15.4095 57.5091 15.4811 57.5352 15.5527C57.5677 15.6243 57.584 15.696 57.584 15.7676C57.584 15.9108 57.5612 16.0508 57.5156 16.1875C57.4766 16.3177 57.457 16.4544 57.457 16.5977C57.457 16.7148 57.4766 16.8158 57.5156 16.9004C57.5547 16.9785 57.6003 17.0566 57.6523 17.1348C57.7044 17.2064 57.7533 17.278 57.7988 17.3496C57.8444 17.4212 57.877 17.5059 57.8965 17.6035C58.0723 17.5775 58.2448 17.5417 58.4141 17.4961C58.5898 17.4505 58.7689 17.4277 58.9512 17.4277C59.0684 17.4277 59.2279 17.4342 59.4297 17.4473C59.638 17.4603 59.8398 17.4928 60.0352 17.5449C60.237 17.5905 60.4095 17.6621 60.5527 17.7598C60.7025 17.8509 60.7773 17.9779 60.7773 18.1406C60.7773 18.2773 60.7578 18.4076 60.7188 18.5312C60.6862 18.6549 60.6341 18.7689 60.5625 18.873C60.4909 18.9772 60.403 19.0618 60.2988 19.127C60.1947 19.1986 60.0742 19.2441 59.9375 19.2637C59.7617 19.2897 59.5892 19.3385 59.4199 19.4102C59.2507 19.4818 59.0781 19.5176 58.9023 19.5176C58.7917 19.5176 58.6842 19.498 58.5801 19.459C58.4824 19.4199 58.3783 19.3776 58.2676 19.332C58.1634 19.293 58.056 19.2539 57.9453 19.2148C57.8346 19.1758 57.7174 19.1562 57.5938 19.1562C57.3008 19.1562 57.0111 19.1562 56.7246 19.1562C56.4447 19.1628 56.1582 19.179 55.8652 19.2051C55.7025 19.2181 55.543 19.2441 55.3867 19.2832C55.2305 19.3288 55.071 19.3711 54.9082 19.4102C54.752 19.4557 54.5924 19.4948 54.4297 19.5273C54.2669 19.5599 54.1042 19.5762 53.9414 19.5762C53.8698 19.5762 53.7852 19.5632 53.6875 19.5371C53.5898 19.5111 53.4889 19.4753 53.3848 19.4297C53.2871 19.3841 53.1927 19.3353 53.1016 19.2832C53.0169 19.2376 52.9453 19.1888 52.8867 19.1367L52.877 18.6875C52.877 18.4727 52.9225 18.3099 53.0137 18.1992C53.1048 18.082 53.222 17.9974 53.3652 17.9453C53.515 17.8867 53.6842 17.8509 53.873 17.8379C54.0618 17.8249 54.2539 17.8151 54.4492 17.8086C54.651 17.8021 54.8464 17.7923 55.0352 17.7793C55.224 17.7598 55.39 17.7174 55.5332 17.6523C55.6829 17.5872 55.8034 17.4896 55.8945 17.3594C55.9857 17.2227 56.0312 17.0371 56.0312 16.8027C56.0312 16.7051 56.0215 16.6074 56.002 16.5098C55.9889 16.4121 55.9694 16.3145 55.9434 16.2168H55.9629C56.002 16.1582 56.0312 16.0736 56.0508 15.9629C56.0768 15.8457 56.0931 15.722 56.0996 15.5918C56.1061 15.4616 56.1094 15.3379 56.1094 15.2207C56.1094 15.097 56.1094 14.9993 56.1094 14.9277C56.1094 14.7454 56.1061 14.5501 56.0996 14.3418C56.0931 14.127 56.0638 13.9349 56.0117 13.7656C55.9987 13.7201 55.9824 13.6777 55.9629 13.6387C55.9499 13.5931 55.9434 13.5443 55.9434 13.4922C55.9434 13.3424 55.9694 13.196 56.0215 13.0527C56.0736 12.903 56.0996 12.7533 56.0996 12.6035C56.0996 12.5449 56.0931 12.5026 56.0801 12.4766C56.0736 12.444 56.0605 12.418 56.041 12.3984C56.028 12.3724 56.015 12.3496 56.002 12.3301C55.9889 12.304 55.9792 12.2715 55.9727 12.2324C56.0182 12.1608 56.054 12.0859 56.0801 12.0078C56.1126 11.9232 56.1289 11.8385 56.1289 11.7539C56.1289 11.6758 56.1126 11.6107 56.0801 11.5586C56.0475 11.5 56.0117 11.4479 55.9727 11.4023C55.9336 11.3503 55.8945 11.2982 55.8555 11.2461C55.8229 11.194 55.8066 11.1354 55.8066 11.0703C55.7155 11.0703 55.5983 11.0703 55.4551 11.0703C55.3118 11.0638 55.1556 11.054 54.9863 11.041C54.8171 11.028 54.6478 11.0052 54.4785 10.9727C54.3092 10.9401 54.1562 10.8978 54.0195 10.8457C53.8828 10.7871 53.7689 10.7155 53.6777 10.6309C53.5931 10.5397 53.5508 10.429 53.5508 10.2988C53.5508 10.2077 53.5866 10.123 53.6582 10.0449C53.7363 9.96029 53.8275 9.88867 53.9316 9.83008C54.0423 9.77148 54.1562 9.72591 54.2734 9.69336C54.3971 9.66081 54.5013 9.64453 54.5859 9.64453C54.6771 9.64453 54.7682 9.64779 54.8594 9.6543C54.957 9.66081 55.0514 9.66406 55.1426 9.66406C55.2402 9.66406 55.3574 9.65755 55.4941 9.64453C55.6374 9.63151 55.748 9.5957 55.8262 9.53711C55.8457 9.51758 55.8685 9.46875 55.8945 9.39062C55.9206 9.30599 55.9434 9.21484 55.9629 9.11719C55.9824 9.01302 55.9987 8.91536 56.0117 8.82422C56.0247 8.72656 56.0312 8.66146 56.0312 8.62891C56.0312 8.47917 56.0182 8.33594 55.9922 8.19922C55.9727 8.0625 55.9629 7.91927 55.9629 7.76953C55.9629 7.55469 55.9889 7.35612 56.041 7.17383C56.0931 6.99154 56.1973 6.82227 56.3535 6.66602C56.5358 6.48372 56.7083 6.30794 56.8711 6.13867C57.0404 5.96289 57.2129 5.80664 57.3887 5.66992C57.571 5.5332 57.7663 5.41602 57.9746 5.31836C58.1895 5.2207 58.4368 5.15234 58.7168 5.11328C58.9121 5.08724 59.1074 5.05794 59.3027 5.02539C59.5046 4.99284 59.7064 4.97656 59.9082 4.97656C60.0189 4.97656 60.1654 4.99284 60.3477 5.02539C60.5365 5.05143 60.735 5.09375 60.9434 5.15234C61.1582 5.20443 61.373 5.26953 61.5879 5.34766C61.8027 5.42578 61.998 5.51693 62.1738 5.62109C62.3496 5.71875 62.4928 5.82943 62.6035 5.95312C62.7142 6.07031 62.7695 6.19727 62.7695 6.33398C62.9714 6.34049 63.1178 6.40885 63.209 6.53906C63.3066 6.66927 63.375 6.82552 63.4141 7.00781C63.4531 7.1901 63.4792 7.38216 63.4922 7.58398C63.5052 7.7793 63.5345 7.94857 63.5801 8.0918L63.5996 8.14062ZM72.8086 14.7227C72.8086 14.8138 72.7923 14.9017 72.7598 14.9863C72.7337 15.0645 72.7012 15.1328 72.6621 15.1914C72.6296 15.25 72.597 15.2988 72.5645 15.3379C72.5384 15.377 72.5254 15.3997 72.5254 15.4062C72.5254 15.4714 72.5449 15.5397 72.584 15.6113C72.6296 15.6829 72.6523 15.7611 72.6523 15.8457C72.6523 15.8848 72.6361 15.9108 72.6035 15.9238C72.5775 15.9368 72.5482 15.9434 72.5156 15.9434C72.457 15.9434 72.4082 15.9368 72.3691 15.9238C72.3757 16.0475 72.3854 16.168 72.3984 16.2852C72.418 16.4023 72.4277 16.5228 72.4277 16.6465C72.4277 16.8353 72.4082 16.959 72.3691 17.0176C72.3366 17.0697 72.3008 17.1022 72.2617 17.1152C72.2227 17.1283 72.1836 17.1445 72.1445 17.1641C72.112 17.1771 72.0957 17.2357 72.0957 17.3398C72.0957 17.3984 72.0534 17.4733 71.9688 17.5645C71.8906 17.6556 71.793 17.7467 71.6758 17.8379C71.5651 17.929 71.4479 18.0072 71.3242 18.0723C71.207 18.1374 71.1126 18.1699 71.041 18.1699C71.0215 18.1699 70.9987 18.1634 70.9727 18.1504C70.9727 18.2025 70.9759 18.2578 70.9824 18.3164C70.9889 18.375 70.9922 18.4303 70.9922 18.4824C70.9922 18.5671 70.9661 18.6257 70.9141 18.6582C70.862 18.6842 70.8034 18.7103 70.7383 18.7363C70.6406 18.7819 70.5397 18.8503 70.4355 18.9414C70.3314 19.026 70.224 19.1139 70.1133 19.2051C70.0026 19.2962 69.8887 19.3743 69.7715 19.4395C69.6608 19.5111 69.5436 19.5469 69.4199 19.5469C69.3158 19.5469 69.2181 19.5208 69.127 19.4688C69.0423 19.4167 68.9414 19.3906 68.8242 19.3906C68.7201 19.3906 68.6322 19.4036 68.5605 19.4297C68.4889 19.4622 68.4206 19.4948 68.3555 19.5273C68.2969 19.5664 68.235 19.599 68.1699 19.625C68.1048 19.6576 68.0299 19.6738 67.9453 19.6738C67.776 19.6738 67.6068 19.6283 67.4375 19.5371C67.2682 19.4525 67.1055 19.3841 66.9492 19.332C66.8581 19.2995 66.7604 19.2734 66.6562 19.2539C66.5521 19.2409 66.4512 19.2246 66.3535 19.2051C66.2559 19.1855 66.1615 19.153 66.0703 19.1074C65.9857 19.0684 65.9108 19.0098 65.8457 18.9316C65.709 18.7624 65.5495 18.6224 65.3672 18.5117C65.1849 18.401 64.9993 18.2969 64.8105 18.1992C64.6217 18.1016 64.4395 18.0007 64.2637 17.8965C64.0879 17.7858 63.9349 17.6426 63.8047 17.4668C63.707 17.3301 63.5964 17.1836 63.4727 17.0273C63.349 16.8646 63.2318 16.6953 63.1211 16.5195C63.0169 16.3438 62.929 16.1647 62.8574 15.9824C62.7858 15.8001 62.75 15.6211 62.75 15.4453C62.75 15.3151 62.763 15.1882 62.7891 15.0645C62.8151 14.9408 62.8411 14.8171 62.8672 14.6934C62.8997 14.5632 62.929 14.4362 62.9551 14.3125C62.9811 14.1888 62.9941 14.0618 62.9941 13.9316V13.8242C62.9941 13.7982 62.9844 13.7689 62.9648 13.7363C62.9453 13.7038 62.9225 13.6745 62.8965 13.6484C62.877 13.6159 62.8542 13.5898 62.8281 13.5703C62.8086 13.5443 62.7956 13.5312 62.7891 13.5312C62.776 13.5312 62.7695 13.5345 62.7695 13.541C62.776 13.4824 62.7923 13.3945 62.8184 13.2773C62.8509 13.1536 62.8867 13.0299 62.9258 12.9062C62.9648 12.776 63.0039 12.6589 63.043 12.5547C63.082 12.444 63.1178 12.3724 63.1504 12.3398C63.1895 12.3073 63.2253 12.2747 63.2578 12.2422C63.2969 12.2031 63.3164 12.1543 63.3164 12.0957C63.3164 12.0371 63.3132 11.9818 63.3066 11.9297C63.3001 11.8711 63.2969 11.8125 63.2969 11.7539C63.2969 11.6758 63.3066 11.6302 63.3262 11.6172C63.3457 11.5977 63.3717 11.5879 63.4043 11.5879C63.4368 11.5879 63.4694 11.5846 63.502 11.5781C63.5345 11.5651 63.5671 11.5293 63.5996 11.4707C63.6582 11.3535 63.7135 11.2461 63.7656 11.1484C63.8242 11.0443 63.8861 10.9499 63.9512 10.8652C64.0163 10.7806 64.0911 10.7025 64.1758 10.6309C64.2604 10.5592 64.3646 10.4909 64.4883 10.4258C64.5924 10.3672 64.6934 10.2956 64.791 10.2109C64.8952 10.1263 64.9993 10.0417 65.1035 9.95703C65.2077 9.8724 65.3118 9.80078 65.416 9.74219C65.5267 9.68359 65.6439 9.6543 65.7676 9.6543C65.9434 9.6543 66.1126 9.625 66.2754 9.56641C66.4447 9.5013 66.6139 9.45247 66.7832 9.41992C67.0501 9.38086 67.3138 9.34505 67.5742 9.3125C67.8411 9.27344 68.1113 9.25391 68.3848 9.25391C68.5345 9.25391 68.7168 9.27995 68.9316 9.33203C69.1465 9.3776 69.3646 9.43945 69.5859 9.51758C69.8138 9.5957 70.0254 9.68359 70.2207 9.78125C70.4225 9.87891 70.582 9.97656 70.6992 10.0742V10.1035C70.6992 10.1947 70.6829 10.2891 70.6504 10.3867C70.6178 10.4779 70.6016 10.569 70.6016 10.6602C70.6016 10.6732 70.6016 10.6862 70.6016 10.6992C70.6016 10.7122 70.6081 10.7188 70.6211 10.7188C70.7318 10.7188 70.8359 10.7057 70.9336 10.6797C71.0378 10.6471 71.1452 10.6309 71.2559 10.6309C71.2689 10.7415 71.3177 10.8164 71.4023 10.8555C71.487 10.8945 71.5716 10.9303 71.6562 10.9629C71.7344 11.002 71.806 11.0736 71.8711 11.1777C71.9427 11.2754 72.0078 11.3893 72.0664 11.5195C72.125 11.6432 72.1803 11.7669 72.2324 11.8906C72.291 12.0143 72.3464 12.1152 72.3984 12.1934C72.4505 12.2715 72.4961 12.3659 72.5352 12.4766C72.5807 12.5807 72.6165 12.6914 72.6426 12.8086C72.6751 12.9258 72.6979 13.043 72.7109 13.1602C72.724 13.2708 72.7305 13.375 72.7305 13.4727C72.7305 13.6029 72.7044 13.7135 72.6523 13.8047C72.6068 13.8893 72.5547 13.9674 72.4961 14.0391C72.4375 14.1042 72.3822 14.1693 72.3301 14.2344C72.2845 14.293 72.2617 14.3613 72.2617 14.4395C72.2617 14.485 72.2715 14.5273 72.291 14.5664C72.3105 14.6055 72.3366 14.6413 72.3691 14.6738C72.3822 14.6673 72.4082 14.6608 72.4473 14.6543C72.4928 14.6478 72.5156 14.6283 72.5156 14.5957V14.5859C72.5156 14.5339 72.4928 14.485 72.4473 14.4395C72.4082 14.3939 72.3887 14.3385 72.3887 14.2734C72.3887 14.2604 72.3952 14.2409 72.4082 14.2148C72.4212 14.1823 72.4375 14.166 72.457 14.166C72.4961 14.166 72.5352 14.1921 72.5742 14.2441C72.6133 14.2897 72.6491 14.3418 72.6816 14.4004C72.7207 14.4525 72.75 14.498 72.7695 14.5371C72.7891 14.5762 72.7988 14.5892 72.7988 14.5762L72.7891 14.5664C72.7956 14.599 72.7988 14.6283 72.7988 14.6543C72.8053 14.6738 72.8086 14.6966 72.8086 14.7227ZM71.832 14.8008C71.832 14.6966 71.793 14.6348 71.7148 14.6152C71.6367 14.5892 71.5488 14.5729 71.4512 14.5664C71.3535 14.5599 71.2559 14.5501 71.1582 14.5371C71.0671 14.5241 71.0052 14.4753 70.9727 14.3906V14.293C70.9727 14.1497 70.9531 13.9837 70.9141 13.7949C70.8815 13.5996 70.8392 13.4043 70.7871 13.209C70.735 13.0072 70.6797 12.8118 70.6211 12.623C70.5625 12.4277 70.5072 12.2552 70.4551 12.1055C70.403 11.9557 70.3607 11.8353 70.3281 11.7441C70.2956 11.653 70.2793 11.6074 70.2793 11.6074C70.2272 11.6204 70.1849 11.627 70.1523 11.627C70.0417 11.627 69.944 11.6042 69.8594 11.5586C69.7812 11.513 69.6901 11.4642 69.5859 11.4121C69.4883 11.36 69.3646 11.3112 69.2148 11.2656C69.0716 11.2201 68.8796 11.1973 68.6387 11.1973C68.3717 11.1973 68.1081 11.181 67.8477 11.1484C67.5872 11.1094 67.3236 11.0898 67.0566 11.0898C66.6921 11.0898 66.3503 11.1745 66.0312 11.3438C65.7122 11.5065 65.4323 11.7246 65.1914 11.998C64.9505 12.265 64.7617 12.5677 64.625 12.9062C64.4883 13.2448 64.4199 13.5866 64.4199 13.9316C64.4199 14.0749 64.4232 14.2441 64.4297 14.4395C64.4362 14.6283 64.4525 14.8203 64.4785 15.0156C64.5046 15.2044 64.5469 15.3835 64.6055 15.5527C64.6641 15.7155 64.7454 15.8392 64.8496 15.9238V16.1973C64.8757 16.2233 64.9082 16.2396 64.9473 16.2461C64.9928 16.2461 65.0352 16.2461 65.0742 16.2461C65.1198 16.2461 65.1589 16.2526 65.1914 16.2656C65.224 16.2721 65.25 16.2982 65.2695 16.3438C65.3542 16.5846 65.4648 16.7702 65.6016 16.9004C65.7383 17.0241 65.8848 17.1315 66.041 17.2227C66.1973 17.3073 66.3535 17.3952 66.5098 17.4863C66.666 17.571 66.8092 17.6979 66.9395 17.8672C66.9915 17.8607 67.0469 17.8574 67.1055 17.8574C67.1641 17.8509 67.2194 17.8477 67.2715 17.8477C67.4798 17.8477 67.6816 17.8639 67.877 17.8965C68.0788 17.9225 68.2806 17.9355 68.4824 17.9355C68.6973 17.9355 68.8893 17.8802 69.0586 17.7695C69.2344 17.6589 69.3841 17.5189 69.5078 17.3496C69.5859 17.2389 69.6576 17.1445 69.7227 17.0664C69.7878 16.9883 69.8529 16.9167 69.918 16.8516C69.9896 16.7799 70.0645 16.7148 70.1426 16.6562C70.2272 16.5911 70.3249 16.5195 70.4355 16.4414C70.4746 16.4154 70.5202 16.3828 70.5723 16.3438C70.6309 16.3047 70.6862 16.2624 70.7383 16.2168C70.7969 16.1647 70.8457 16.1159 70.8848 16.0703C70.9238 16.0182 70.9434 15.9694 70.9434 15.9238C70.9434 15.8652 70.9336 15.8066 70.9141 15.748C70.901 15.6895 70.8945 15.6309 70.8945 15.5723C70.8945 15.5072 70.9043 15.429 70.9238 15.3379C70.9434 15.2467 70.9727 15.1589 71.0117 15.0742C71.0573 14.9896 71.1094 14.9212 71.168 14.8691C71.2331 14.8105 71.3112 14.7812 71.4023 14.7812C71.474 14.7812 71.5456 14.7975 71.6172 14.8301C71.6888 14.8626 71.7539 14.9017 71.8125 14.9473C71.8255 14.8822 71.832 14.8333 71.832 14.8008ZM84.3809 18.4922C84.3809 18.7201 84.3027 18.8991 84.1465 19.0293C83.9967 19.166 83.8145 19.2669 83.5996 19.332C83.3848 19.4036 83.1602 19.4492 82.9258 19.4688C82.6979 19.4883 82.5026 19.498 82.3398 19.498C82.125 19.498 81.946 19.4785 81.8027 19.4395C81.666 19.4004 81.5456 19.3581 81.4414 19.3125C81.3372 19.2734 81.2461 19.2344 81.168 19.1953C81.0898 19.1562 81.0085 19.1367 80.9238 19.1367C80.8132 19.1367 80.7025 19.1562 80.5918 19.1953C80.4876 19.2344 80.3802 19.2539 80.2695 19.2539C80.1914 19.2539 80.1263 19.2409 80.0742 19.2148C80.0286 19.1888 79.9896 19.1562 79.957 19.1172C79.9245 19.0846 79.8919 19.0553 79.8594 19.0293C79.8333 19.0033 79.8008 18.9902 79.7617 18.9902C79.7161 18.9902 79.6803 19.0065 79.6543 19.0391C79.6283 19.0781 79.599 19.1204 79.5664 19.166C79.5339 19.2116 79.485 19.2507 79.4199 19.2832C79.3613 19.3223 79.2734 19.3418 79.1562 19.3418C79.0195 19.3418 78.8861 19.3255 78.7559 19.293C78.6257 19.2669 78.4922 19.2539 78.3555 19.2539C78.2188 19.2539 78.082 19.2767 77.9453 19.3223C77.8151 19.3743 77.6914 19.4004 77.5742 19.4004C77.5221 19.4004 77.4831 19.3809 77.457 19.3418C77.431 19.3092 77.4017 19.293 77.3691 19.293C77.2585 19.293 77.1413 19.319 77.0176 19.3711C76.9004 19.4232 76.7799 19.4492 76.6562 19.4492C76.5911 19.4492 76.526 19.4395 76.4609 19.4199C76.4023 19.4069 76.3405 19.4004 76.2754 19.4004C76.1647 19.4004 76.054 19.4264 75.9434 19.4785C75.8327 19.5306 75.696 19.5566 75.5332 19.5566C75.4746 19.5566 75.3444 19.5469 75.1426 19.5273C74.9473 19.5143 74.7454 19.4915 74.5371 19.459C74.3288 19.4264 74.14 19.3841 73.9707 19.332C73.8079 19.2865 73.7266 19.2344 73.7266 19.1758C73.7266 19.0065 73.7559 18.8372 73.8145 18.668C73.8796 18.4987 73.9121 18.3359 73.9121 18.1797V18.1602C73.8275 18.1602 73.7786 18.1146 73.7656 18.0234C73.7786 17.9974 73.7982 17.9779 73.8242 17.9648C73.8568 17.9453 73.8893 17.9323 73.9219 17.9258C73.9544 17.9128 73.9837 17.8965 74.0098 17.877C74.0358 17.8574 74.0488 17.8281 74.0488 17.7891V17.75C74.3092 17.776 74.5632 17.7923 74.8105 17.7988C75.0645 17.8053 75.3281 17.8086 75.6016 17.8086C75.8555 17.8086 76.1354 17.8021 76.4414 17.7891C76.7539 17.7695 77.0404 17.7207 77.3008 17.6426C77.5677 17.5645 77.7891 17.4473 77.9648 17.291C78.1471 17.1283 78.2383 16.9036 78.2383 16.6172V16.5488V16.3926C78.2057 15.6764 78.1699 14.9733 78.1309 14.2832C78.0983 13.5866 78.082 12.8802 78.082 12.1641C78.082 11.9753 78.0658 11.793 78.0332 11.6172C78.0072 11.4349 77.9941 11.2526 77.9941 11.0703C77.9941 10.8424 78.0332 10.6146 78.1113 10.3867C78.196 10.1589 78.3262 9.9668 78.502 9.81055C78.4954 9.77148 78.4792 9.74544 78.4531 9.73242C78.4271 9.71289 78.3945 9.69987 78.3555 9.69336C78.3164 9.68685 78.2773 9.68034 78.2383 9.67383C78.2057 9.66732 78.1764 9.65755 78.1504 9.64453C78.1113 9.625 78.0853 9.57943 78.0723 9.50781C78.0592 9.4362 78.0462 9.35807 78.0332 9.27344C78.0267 9.1888 78.0169 9.10742 78.0039 9.0293C77.9974 8.94466 77.9779 8.87956 77.9453 8.83398C77.9648 8.64518 77.9974 8.45964 78.043 8.27734C78.0885 8.09505 78.1113 7.90951 78.1113 7.7207C78.1113 7.58398 78.0918 7.47656 78.0527 7.39844C78.0202 7.32031 77.9811 7.25521 77.9355 7.20312C77.89 7.15104 77.8477 7.10547 77.8086 7.06641C77.776 7.02083 77.7598 6.96549 77.7598 6.90039C77.7598 6.84831 77.776 6.79948 77.8086 6.75391L77.7305 6.74414C77.6654 6.74414 77.6165 6.76042 77.584 6.79297C77.5514 6.82552 77.5189 6.86133 77.4863 6.90039C77.4603 6.93945 77.431 6.97526 77.3984 7.00781C77.3659 7.04036 77.3203 7.05664 77.2617 7.05664C77.2161 7.05664 77.1641 7.04688 77.1055 7.02734C76.9948 7.0599 76.8906 7.07617 76.793 7.07617C76.5651 7.07617 76.3372 7.04688 76.1094 6.98828C75.888 6.92318 75.6634 6.89062 75.4355 6.89062C75.3118 6.89062 75.1914 6.89714 75.0742 6.91016C74.957 6.91667 74.8398 6.91992 74.7227 6.91992C74.5534 6.91992 74.3841 6.90039 74.2148 6.86133C74.0456 6.82227 73.8958 6.73763 73.7656 6.60742V6.49023C73.7656 6.14518 73.8796 5.88477 74.1074 5.70898C74.3418 5.5332 74.625 5.44531 74.957 5.44531C75.1849 5.44531 75.4095 5.47461 75.6309 5.5332C75.8522 5.5918 76.0768 5.62109 76.3047 5.62109C76.4284 5.62109 76.5586 5.60807 76.6953 5.58203C76.832 5.55599 76.972 5.52669 77.1152 5.49414C77.2585 5.46159 77.4017 5.43229 77.5449 5.40625C77.6947 5.38021 77.8411 5.36719 77.9844 5.36719C78.2057 5.36719 78.4141 5.41602 78.6094 5.51367C78.8047 5.60482 79 5.69271 79.1953 5.77734L79.1855 5.85547C79.1855 5.91406 79.1986 5.9694 79.2246 6.02148C79.2572 6.06706 79.293 6.11589 79.332 6.16797C79.3711 6.21354 79.4036 6.26237 79.4297 6.31445C79.4622 6.36003 79.4785 6.41211 79.4785 6.4707C79.4785 6.5293 79.4688 6.58789 79.4492 6.64648C79.4362 6.69857 79.4297 6.75391 79.4297 6.8125C79.4297 6.95573 79.4557 7.09245 79.5078 7.22266C79.5664 7.35286 79.5957 7.49284 79.5957 7.64258C79.5957 7.79883 79.5762 7.95182 79.5371 8.10156C79.5046 8.2513 79.4883 8.4043 79.4883 8.56055C79.4883 8.74935 79.5111 8.93815 79.5566 9.12695C79.6022 9.31576 79.625 9.50456 79.625 9.69336C79.625 9.84961 79.599 10.0026 79.5469 10.1523C79.5013 10.3021 79.4785 10.4518 79.4785 10.6016C79.4785 10.7122 79.4915 10.8229 79.5176 10.9336C79.5501 11.0378 79.5859 11.1419 79.625 11.2461C79.6641 11.3503 79.6966 11.4577 79.7227 11.5684C79.7552 11.6725 79.7715 11.7832 79.7715 11.9004V12.0957C79.7715 12.1999 79.7617 12.3008 79.7422 12.3984C79.7292 12.4896 79.6868 12.5775 79.6152 12.6621C79.6478 12.7858 79.6803 12.9193 79.7129 13.0625C79.752 13.2057 79.7715 13.3424 79.7715 13.4727C79.7715 13.5378 79.765 13.6094 79.752 13.6875C79.7454 13.7591 79.7292 13.834 79.7031 13.9121C79.6836 13.9837 79.6543 14.0521 79.6152 14.1172C79.5762 14.1758 79.5306 14.2246 79.4785 14.2637C79.5632 14.5111 79.6185 14.7617 79.6445 15.0156C79.6706 15.2695 79.6901 15.5234 79.7031 15.7773C79.7096 15.8555 79.7227 15.9564 79.7422 16.0801C79.7617 16.2038 79.7812 16.3275 79.8008 16.4512C79.8203 16.5684 79.8366 16.679 79.8496 16.7832C79.8691 16.8809 79.8789 16.9492 79.8789 16.9883C79.8789 17.099 79.8594 17.2064 79.8203 17.3105C79.7812 17.4147 79.7617 17.5221 79.7617 17.6328C79.7617 17.7174 79.7812 17.8086 79.8203 17.9062C79.8594 17.9974 79.931 18.043 80.0352 18.043C80.1133 18.043 80.1784 18.0267 80.2305 17.9941C80.2891 17.9551 80.3509 17.916 80.416 17.877C80.4811 17.8314 80.556 17.7923 80.6406 17.7598C80.7318 17.7207 80.8522 17.7012 81.002 17.7012C81.1712 17.7012 81.3307 17.724 81.4805 17.7695C81.6302 17.8151 81.7897 17.8379 81.959 17.8379C82.0827 17.8379 82.2064 17.8281 82.3301 17.8086C82.4603 17.7826 82.584 17.7565 82.7012 17.7305C82.8249 17.6979 82.9486 17.6686 83.0723 17.6426C83.196 17.6165 83.3229 17.6035 83.4531 17.6035C83.7135 17.6035 83.9316 17.6784 84.1074 17.8281C84.2897 17.9779 84.3809 18.1992 84.3809 18.4922ZM78.7754 6.33398C78.7493 6.30794 78.7168 6.2819 78.6777 6.25586C78.6452 6.22982 78.6061 6.2168 78.5605 6.2168C78.528 6.2168 78.4987 6.23307 78.4727 6.26562C78.4531 6.29167 78.4434 6.32096 78.4434 6.35352L78.4922 6.4707C78.5182 6.48372 78.5378 6.49023 78.5508 6.49023C78.6029 6.49023 78.6452 6.47396 78.6777 6.44141C78.7168 6.40234 78.7493 6.36654 78.7754 6.33398ZM79.3613 9.04883C79.3613 8.99674 79.3451 8.94466 79.3125 8.89258C79.2865 8.83398 79.2409 8.80469 79.1758 8.80469C79.1562 8.80469 79.1335 8.80794 79.1074 8.81445C79.0879 8.82096 79.0716 8.82747 79.0586 8.83398V9.25391C79.1107 9.27995 79.1497 9.29297 79.1758 9.29297C79.2409 9.29297 79.2865 9.26693 79.3125 9.21484C79.3451 9.15625 79.3613 9.10091 79.3613 9.04883ZM91.0703 6.74414C91.0703 6.93294 91.0378 7.12826 90.9727 7.33008C90.9141 7.52539 90.8262 7.70768 90.709 7.87695C90.5918 8.03971 90.4486 8.17643 90.2793 8.28711C90.1165 8.39128 89.9342 8.44336 89.7324 8.44336C89.5957 8.44336 89.4264 8.42383 89.2246 8.38477C89.0228 8.33919 88.8275 8.27734 88.6387 8.19922C88.4564 8.11458 88.2969 8.00716 88.1602 7.87695C88.0299 7.74674 87.9648 7.59375 87.9648 7.41797C87.9648 7.26172 87.9811 7.10221 88.0137 6.93945C88.0527 6.77018 88.0755 6.60091 88.082 6.43164C88.1471 6.39909 88.2122 6.34049 88.2773 6.25586C88.3424 6.17122 88.4043 6.08659 88.4629 6.00195C88.528 5.91081 88.5898 5.82943 88.6484 5.75781C88.7135 5.6862 88.7786 5.64714 88.8438 5.64062L88.7949 5.66016C88.8861 5.62109 88.9805 5.58854 89.0781 5.5625C89.1823 5.53646 89.2865 5.52344 89.3906 5.52344C89.5273 5.52344 89.6901 5.55924 89.8789 5.63086C90.0742 5.69596 90.2598 5.78385 90.4355 5.89453C90.6113 6.00521 90.7611 6.13542 90.8848 6.28516C91.0085 6.4349 91.0703 6.58789 91.0703 6.74414ZM95.7969 18.6289C95.7969 18.7396 95.7741 18.8438 95.7285 18.9414C95.6895 19.0391 95.6309 19.1237 95.5527 19.1953C95.4811 19.2734 95.3965 19.3353 95.2988 19.3809C95.2012 19.4264 95.0938 19.4492 94.9766 19.4492C94.931 19.4492 94.9017 19.4427 94.8887 19.4297C94.8757 19.4167 94.8529 19.3939 94.8203 19.3613C94.7292 19.2637 94.6185 19.2051 94.4883 19.1855C94.3581 19.1725 94.2214 19.1562 94.0781 19.1367C93.9414 19.1237 93.8079 19.0879 93.6777 19.0293C93.554 18.9772 93.4531 18.8665 93.375 18.6973C93.3229 18.5866 93.2676 18.515 93.209 18.4824C93.1504 18.4499 93.0592 18.4336 92.9355 18.4336C92.6491 18.4336 92.3757 18.4792 92.1152 18.5703C91.8548 18.6615 91.5977 18.7656 91.3438 18.8828C91.0898 18.9935 90.8294 19.0944 90.5625 19.1855C90.3021 19.2767 90.0319 19.3223 89.752 19.3223C89.5957 19.3223 89.4395 19.306 89.2832 19.2734C89.1335 19.2474 88.987 19.2018 88.8438 19.1367C88.8112 19.1693 88.7721 19.1921 88.7266 19.2051C88.6875 19.2181 88.6419 19.2246 88.5898 19.2246C88.5443 19.2246 88.4987 19.2214 88.4531 19.2148C88.4141 19.2083 88.3783 19.2051 88.3457 19.2051C88.3392 19.2051 88.3034 19.2148 88.2383 19.2344C88.1732 19.2604 88.1341 19.2767 88.1211 19.2832L88.1797 19.3809C88.1406 19.4395 88.0527 19.4948 87.916 19.5469C87.7793 19.6055 87.6296 19.6543 87.4668 19.6934C87.3105 19.7324 87.1576 19.765 87.0078 19.791C86.8581 19.8171 86.7441 19.8301 86.666 19.8301C86.4577 19.8301 86.2852 19.7943 86.1484 19.7227C86.0182 19.6576 85.888 19.5404 85.7578 19.3711C85.7122 19.306 85.6536 19.2409 85.582 19.1758C85.5169 19.1107 85.4518 19.0456 85.3867 18.9805C85.3281 18.9089 85.276 18.834 85.2305 18.7559C85.1914 18.6777 85.1719 18.5964 85.1719 18.5117C85.1719 18.4141 85.224 18.3327 85.3281 18.2676C85.4323 18.2025 85.556 18.1504 85.6992 18.1113C85.8424 18.0658 85.9857 18.0365 86.1289 18.0234C86.2721 18.0039 86.3828 17.9941 86.4609 17.9941C86.6172 17.9941 86.7734 18.0169 86.9297 18.0625C87.0859 18.1016 87.2422 18.1211 87.3984 18.1211C87.5417 18.1211 87.6784 18.1016 87.8086 18.0625C87.9388 18.0234 88.0755 18.0039 88.2188 18.0039C88.3424 18.0039 88.4629 18.0137 88.5801 18.0332C88.7038 18.0462 88.8275 18.0527 88.9512 18.0527C89.1074 18.0527 89.2572 18.0267 89.4004 17.9746C89.5501 17.916 89.6901 17.8411 89.8203 17.75C89.8724 17.431 89.9082 17.112 89.9277 16.793C89.9538 16.474 89.9668 16.1517 89.9668 15.8262C89.9668 15.5072 89.9408 15.1882 89.8887 14.8691C89.8366 14.5501 89.8105 14.2344 89.8105 13.9219C89.8105 13.8958 89.8171 13.8828 89.8301 13.8828C89.8431 13.8763 89.8561 13.873 89.8691 13.873C89.8887 13.8665 89.9049 13.86 89.918 13.8535C89.931 13.8405 89.9375 13.8145 89.9375 13.7754C89.9375 13.6387 89.918 13.5052 89.8789 13.375C89.8398 13.2448 89.8203 13.1113 89.8203 12.9746C89.8203 12.8053 89.8431 12.6393 89.8887 12.4766C89.9342 12.3138 89.957 12.1478 89.957 11.9785C89.957 11.8613 89.931 11.7441 89.8789 11.627C89.8268 11.5098 89.7585 11.4056 89.6738 11.3145C89.5892 11.2233 89.4915 11.1517 89.3809 11.0996C89.2702 11.041 89.153 11.0117 89.0293 11.0117C88.8926 11.0117 88.7559 11.028 88.6191 11.0605C88.4889 11.0931 88.3522 11.1322 88.209 11.1777C88.0658 11.2168 87.9193 11.2526 87.7695 11.2852C87.6263 11.3177 87.4733 11.334 87.3105 11.334C87.1217 11.334 86.9362 11.321 86.7539 11.2949C86.5716 11.2689 86.3861 11.2396 86.1973 11.207C86.1061 11.194 86.002 11.181 85.8848 11.168C85.7741 11.1549 85.6667 11.1322 85.5625 11.0996C85.4583 11.0671 85.3704 11.0182 85.2988 10.9531C85.2272 10.888 85.1914 10.7936 85.1914 10.6699C85.1914 10.4421 85.2305 10.2695 85.3086 10.1523C85.3932 10.0286 85.4941 9.9375 85.6113 9.87891C85.735 9.82031 85.8717 9.78451 86.0215 9.77148C86.1712 9.75846 86.3145 9.74544 86.4512 9.73242C86.6986 9.71289 86.9427 9.69661 87.1836 9.68359C87.431 9.66406 87.6784 9.6543 87.9258 9.6543C88.2318 9.6543 88.5312 9.67383 88.8242 9.71289C89.1237 9.74544 89.4264 9.76172 89.7324 9.76172C89.9473 9.76172 90.1523 9.79427 90.3477 9.85938C90.543 9.92448 90.7122 10.0254 90.8555 10.1621C91.0052 10.2923 91.1224 10.4583 91.207 10.6602C91.2917 10.862 91.334 11.0964 91.334 11.3633C91.334 11.5391 91.2949 11.7116 91.2168 11.8809C91.1452 12.0436 91.0508 12.1901 90.9336 12.3203C90.9792 12.4049 91.0247 12.4635 91.0703 12.4961C91.1159 12.5221 91.1582 12.5482 91.1973 12.5742C91.2363 12.5938 91.2689 12.623 91.2949 12.6621C91.321 12.6947 91.334 12.7598 91.334 12.8574C91.334 12.9095 91.3405 12.9714 91.3535 13.043C91.373 13.1081 91.4186 13.1439 91.4902 13.1504C91.4902 13.502 91.487 13.8503 91.4805 14.1953C91.474 14.5339 91.4707 14.8757 91.4707 15.2207C91.4707 15.5137 91.4707 15.8066 91.4707 16.0996C91.4772 16.3926 91.5033 16.6855 91.5488 16.9785C91.5749 17.1608 91.627 17.3008 91.7051 17.3984C91.7832 17.4961 91.9232 17.5449 92.125 17.5449C92.418 17.5449 92.7077 17.5156 92.9941 17.457C93.2806 17.3919 93.5703 17.3594 93.8633 17.3594C94.0326 17.3594 94.1921 17.4017 94.3418 17.4863C94.498 17.571 94.6445 17.6621 94.7812 17.7598C94.9245 17.8574 95.0612 17.9486 95.1914 18.0332C95.3216 18.1178 95.4453 18.1602 95.5625 18.1602C95.6146 18.1602 95.6569 18.1797 95.6895 18.2188C95.722 18.2513 95.7448 18.2936 95.7578 18.3457C95.7773 18.3913 95.7871 18.4401 95.7871 18.4922C95.7936 18.5443 95.7969 18.5898 95.7969 18.6289ZM106.676 14.7227C106.676 14.8138 106.66 14.9017 106.627 14.9863C106.601 15.0645 106.568 15.1328 106.529 15.1914C106.497 15.25 106.464 15.2988 106.432 15.3379C106.406 15.377 106.393 15.3997 106.393 15.4062C106.393 15.4714 106.412 15.5397 106.451 15.6113C106.497 15.6829 106.52 15.7611 106.52 15.8457C106.52 15.8848 106.503 15.9108 106.471 15.9238C106.445 15.9368 106.415 15.9434 106.383 15.9434C106.324 15.9434 106.275 15.9368 106.236 15.9238C106.243 16.0475 106.253 16.168 106.266 16.2852C106.285 16.4023 106.295 16.5228 106.295 16.6465C106.295 16.8353 106.275 16.959 106.236 17.0176C106.204 17.0697 106.168 17.1022 106.129 17.1152C106.09 17.1283 106.051 17.1445 106.012 17.1641C105.979 17.1771 105.963 17.2357 105.963 17.3398C105.963 17.3984 105.921 17.4733 105.836 17.5645C105.758 17.6556 105.66 17.7467 105.543 17.8379C105.432 17.929 105.315 18.0072 105.191 18.0723C105.074 18.1374 104.98 18.1699 104.908 18.1699C104.889 18.1699 104.866 18.1634 104.84 18.1504C104.84 18.2025 104.843 18.2578 104.85 18.3164C104.856 18.375 104.859 18.4303 104.859 18.4824C104.859 18.5671 104.833 18.6257 104.781 18.6582C104.729 18.6842 104.671 18.7103 104.605 18.7363C104.508 18.7819 104.407 18.8503 104.303 18.9414C104.199 19.026 104.091 19.1139 103.98 19.2051C103.87 19.2962 103.756 19.3743 103.639 19.4395C103.528 19.5111 103.411 19.5469 103.287 19.5469C103.183 19.5469 103.085 19.5208 102.994 19.4688C102.91 19.4167 102.809 19.3906 102.691 19.3906C102.587 19.3906 102.499 19.4036 102.428 19.4297C102.356 19.4622 102.288 19.4948 102.223 19.5273C102.164 19.5664 102.102 19.599 102.037 19.625C101.972 19.6576 101.897 19.6738 101.812 19.6738C101.643 19.6738 101.474 19.6283 101.305 19.5371C101.135 19.4525 100.973 19.3841 100.816 19.332C100.725 19.2995 100.628 19.2734 100.523 19.2539C100.419 19.2409 100.318 19.2246 100.221 19.2051C100.123 19.1855 100.029 19.153 99.9375 19.1074C99.8529 19.0684 99.778 19.0098 99.7129 18.9316C99.5762 18.7624 99.4167 18.6224 99.2344 18.5117C99.0521 18.401 98.8665 18.2969 98.6777 18.1992C98.4889 18.1016 98.3066 18.0007 98.1309 17.8965C97.9551 17.7858 97.8021 17.6426 97.6719 17.4668C97.5742 17.3301 97.4635 17.1836 97.3398 17.0273C97.2161 16.8646 97.099 16.6953 96.9883 16.5195C96.8841 16.3438 96.7962 16.1647 96.7246 15.9824C96.653 15.8001 96.6172 15.6211 96.6172 15.4453C96.6172 15.3151 96.6302 15.1882 96.6562 15.0645C96.6823 14.9408 96.7083 14.8171 96.7344 14.6934C96.7669 14.5632 96.7962 14.4362 96.8223 14.3125C96.8483 14.1888 96.8613 14.0618 96.8613 13.9316V13.8242C96.8613 13.7982 96.8516 13.7689 96.832 13.7363C96.8125 13.7038 96.7897 13.6745 96.7637 13.6484C96.7441 13.6159 96.7214 13.5898 96.6953 13.5703C96.6758 13.5443 96.6628 13.5312 96.6562 13.5312C96.6432 13.5312 96.6367 13.5345 96.6367 13.541C96.6432 13.4824 96.6595 13.3945 96.6855 13.2773C96.7181 13.1536 96.7539 13.0299 96.793 12.9062C96.832 12.776 96.8711 12.6589 96.9102 12.5547C96.9492 12.444 96.985 12.3724 97.0176 12.3398C97.0566 12.3073 97.0924 12.2747 97.125 12.2422C97.1641 12.2031 97.1836 12.1543 97.1836 12.0957C97.1836 12.0371 97.1803 11.9818 97.1738 11.9297C97.1673 11.8711 97.1641 11.8125 97.1641 11.7539C97.1641 11.6758 97.1738 11.6302 97.1934 11.6172C97.2129 11.5977 97.2389 11.5879 97.2715 11.5879C97.304 11.5879 97.3366 11.5846 97.3691 11.5781C97.4017 11.5651 97.4342 11.5293 97.4668 11.4707C97.5254 11.3535 97.5807 11.2461 97.6328 11.1484C97.6914 11.0443 97.7533 10.9499 97.8184 10.8652C97.8835 10.7806 97.9583 10.7025 98.043 10.6309C98.1276 10.5592 98.2318 10.4909 98.3555 10.4258C98.4596 10.3672 98.5605 10.2956 98.6582 10.2109C98.7624 10.1263 98.8665 10.0417 98.9707 9.95703C99.0749 9.8724 99.179 9.80078 99.2832 9.74219C99.3939 9.68359 99.5111 9.6543 99.6348 9.6543C99.8105 9.6543 99.9798 9.625 100.143 9.56641C100.312 9.5013 100.481 9.45247 100.65 9.41992C100.917 9.38086 101.181 9.34505 101.441 9.3125C101.708 9.27344 101.979 9.25391 102.252 9.25391C102.402 9.25391 102.584 9.27995 102.799 9.33203C103.014 9.3776 103.232 9.43945 103.453 9.51758C103.681 9.5957 103.893 9.68359 104.088 9.78125C104.29 9.87891 104.449 9.97656 104.566 10.0742V10.1035C104.566 10.1947 104.55 10.2891 104.518 10.3867C104.485 10.4779 104.469 10.569 104.469 10.6602C104.469 10.6732 104.469 10.6862 104.469 10.6992C104.469 10.7122 104.475 10.7188 104.488 10.7188C104.599 10.7188 104.703 10.7057 104.801 10.6797C104.905 10.6471 105.012 10.6309 105.123 10.6309C105.136 10.7415 105.185 10.8164 105.27 10.8555C105.354 10.8945 105.439 10.9303 105.523 10.9629C105.602 11.002 105.673 11.0736 105.738 11.1777C105.81 11.2754 105.875 11.3893 105.934 11.5195C105.992 11.6432 106.048 11.7669 106.1 11.8906C106.158 12.0143 106.214 12.1152 106.266 12.1934C106.318 12.2715 106.363 12.3659 106.402 12.4766C106.448 12.5807 106.484 12.6914 106.51 12.8086C106.542 12.9258 106.565 13.043 106.578 13.1602C106.591 13.2708 106.598 13.375 106.598 13.4727C106.598 13.6029 106.572 13.7135 106.52 13.8047C106.474 13.8893 106.422 13.9674 106.363 14.0391C106.305 14.1042 106.249 14.1693 106.197 14.2344C106.152 14.293 106.129 14.3613 106.129 14.4395C106.129 14.485 106.139 14.5273 106.158 14.5664C106.178 14.6055 106.204 14.6413 106.236 14.6738C106.249 14.6673 106.275 14.6608 106.314 14.6543C106.36 14.6478 106.383 14.6283 106.383 14.5957V14.5859C106.383 14.5339 106.36 14.485 106.314 14.4395C106.275 14.3939 106.256 14.3385 106.256 14.2734C106.256 14.2604 106.262 14.2409 106.275 14.2148C106.288 14.1823 106.305 14.166 106.324 14.166C106.363 14.166 106.402 14.1921 106.441 14.2441C106.48 14.2897 106.516 14.3418 106.549 14.4004C106.588 14.4525 106.617 14.498 106.637 14.5371C106.656 14.5762 106.666 14.5892 106.666 14.5762L106.656 14.5664C106.663 14.599 106.666 14.6283 106.666 14.6543C106.673 14.6738 106.676 14.6966 106.676 14.7227ZM105.699 14.8008C105.699 14.6966 105.66 14.6348 105.582 14.6152C105.504 14.5892 105.416 14.5729 105.318 14.5664C105.221 14.5599 105.123 14.5501 105.025 14.5371C104.934 14.5241 104.872 14.4753 104.84 14.3906V14.293C104.84 14.1497 104.82 13.9837 104.781 13.7949C104.749 13.5996 104.706 13.4043 104.654 13.209C104.602 13.0072 104.547 12.8118 104.488 12.623C104.43 12.4277 104.374 12.2552 104.322 12.1055C104.27 11.9557 104.228 11.8353 104.195 11.7441C104.163 11.653 104.146 11.6074 104.146 11.6074C104.094 11.6204 104.052 11.627 104.02 11.627C103.909 11.627 103.811 11.6042 103.727 11.5586C103.648 11.513 103.557 11.4642 103.453 11.4121C103.355 11.36 103.232 11.3112 103.082 11.2656C102.939 11.2201 102.747 11.1973 102.506 11.1973C102.239 11.1973 101.975 11.181 101.715 11.1484C101.454 11.1094 101.191 11.0898 100.924 11.0898C100.559 11.0898 100.217 11.1745 99.8984 11.3438C99.5794 11.5065 99.2995 11.7246 99.0586 11.998C98.8177 12.265 98.6289 12.5677 98.4922 12.9062C98.3555 13.2448 98.2871 13.5866 98.2871 13.9316C98.2871 14.0749 98.2904 14.2441 98.2969 14.4395C98.3034 14.6283 98.3197 14.8203 98.3457 15.0156C98.3717 15.2044 98.4141 15.3835 98.4727 15.5527C98.5312 15.7155 98.6126 15.8392 98.7168 15.9238V16.1973C98.7428 16.2233 98.7754 16.2396 98.8145 16.2461C98.86 16.2461 98.9023 16.2461 98.9414 16.2461C98.987 16.2461 99.026 16.2526 99.0586 16.2656C99.0911 16.2721 99.1172 16.2982 99.1367 16.3438C99.2214 16.5846 99.332 16.7702 99.4688 16.9004C99.6055 17.0241 99.752 17.1315 99.9082 17.2227C100.064 17.3073 100.221 17.3952 100.377 17.4863C100.533 17.571 100.676 17.6979 100.807 17.8672C100.859 17.8607 100.914 17.8574 100.973 17.8574C101.031 17.8509 101.087 17.8477 101.139 17.8477C101.347 17.8477 101.549 17.8639 101.744 17.8965C101.946 17.9225 102.148 17.9355 102.35 17.9355C102.564 17.9355 102.757 17.8802 102.926 17.7695C103.102 17.6589 103.251 17.5189 103.375 17.3496C103.453 17.2389 103.525 17.1445 103.59 17.0664C103.655 16.9883 103.72 16.9167 103.785 16.8516C103.857 16.7799 103.932 16.7148 104.01 16.6562C104.094 16.5911 104.192 16.5195 104.303 16.4414C104.342 16.4154 104.387 16.3828 104.439 16.3438C104.498 16.3047 104.553 16.2624 104.605 16.2168C104.664 16.1647 104.713 16.1159 104.752 16.0703C104.791 16.0182 104.811 15.9694 104.811 15.9238C104.811 15.8652 104.801 15.8066 104.781 15.748C104.768 15.6895 104.762 15.6309 104.762 15.5723C104.762 15.5072 104.771 15.429 104.791 15.3379C104.811 15.2467 104.84 15.1589 104.879 15.0742C104.924 14.9896 104.977 14.9212 105.035 14.8691C105.1 14.8105 105.178 14.7812 105.27 14.7812C105.341 14.7812 105.413 14.7975 105.484 14.8301C105.556 14.8626 105.621 14.9017 105.68 14.9473C105.693 14.8822 105.699 14.8333 105.699 14.8008Z" fill="black"/>
<g filter="url(#filter0_d_106_1684)">
<path d="M0 0H17V23H0V0Z" fill="white" shape-rendering="crispEdges"/>
<path d="M16.9004 0.0996094V22.9004H0.0996094V0.0996094H16.9004Z" stroke="#DDDDDD" stroke-width="0.199446" shape-rendering="crispEdges"/>
<path d="M4.41016 6.4707C4.38411 6.50326 4.35482 6.53255 4.32227 6.55859C4.29622 6.58464 4.26367 6.59766 4.22461 6.59766C4.17904 6.59766 4.13997 6.57812 4.10742 6.53906C4.08138 6.5 4.06836 6.45768 4.06836 6.41211C4.06836 6.4056 4.07161 6.39583 4.07812 6.38281C4.08464 6.36979 4.08789 6.35677 4.08789 6.34375L4.14648 6.32422C4.19857 6.32422 4.2474 6.34049 4.29297 6.37305C4.33854 6.4056 4.3776 6.43815 4.41016 6.4707ZM7.19336 13.4336V13.4629C7.18685 13.4434 7.18359 13.4271 7.18359 13.4141C7.18359 13.3945 7.18359 13.3783 7.18359 13.3652L7.19336 13.4238V13.4336ZM14 8.93164C14 9.0293 13.9967 9.13997 13.9902 9.26367C13.9837 9.38737 13.9707 9.51432 13.9512 9.64453C13.9382 9.77474 13.9186 9.90169 13.8926 10.0254C13.873 10.1426 13.847 10.2467 13.8145 10.3379C13.7233 10.5592 13.6029 10.7611 13.4531 10.9434C13.3099 11.1257 13.196 11.3307 13.1113 11.5586C13.0918 11.6172 13.0365 11.6823 12.9453 11.7539C12.8542 11.8255 12.7533 11.8971 12.6426 11.9688C12.5319 12.0404 12.4212 12.1087 12.3105 12.1738C12.2064 12.2324 12.125 12.2812 12.0664 12.3203C11.6953 12.5482 11.3242 12.7207 10.9531 12.8379C10.582 12.9551 10.1816 13.0137 9.75195 13.0137H9.69336C9.58919 12.9551 9.5013 12.916 9.42969 12.8965C9.36458 12.877 9.27018 12.8672 9.14648 12.8672C9.02279 12.8672 8.90234 12.8704 8.78516 12.877C8.66797 12.8835 8.55078 12.8932 8.43359 12.9062C8.38802 12.9128 8.29688 12.9388 8.16016 12.9844C8.02995 13.0234 7.89323 13.0723 7.75 13.1309C7.60677 13.1829 7.47656 13.2383 7.35938 13.2969C7.2487 13.349 7.19336 13.3913 7.19336 13.4238V13.4629C7.20638 13.5085 7.22266 13.5312 7.24219 13.5312C7.27474 13.5312 7.30404 13.515 7.33008 13.4824C7.36263 13.4434 7.39844 13.4238 7.4375 13.4238C7.47005 13.4238 7.49609 13.4401 7.51562 13.4727C7.53516 13.5052 7.54818 13.5443 7.55469 13.5898C7.56771 13.6289 7.57422 13.6712 7.57422 13.7168C7.58073 13.7559 7.58398 13.7852 7.58398 13.8047C7.58398 13.9935 7.56445 14.1823 7.52539 14.3711C7.48633 14.5534 7.4668 14.7389 7.4668 14.9277C7.4668 15.1165 7.46354 15.3053 7.45703 15.4941C7.45703 15.6764 7.45703 15.862 7.45703 16.0508C7.45703 16.3958 7.47331 16.6562 7.50586 16.832C7.54492 17.0078 7.61654 17.1413 7.7207 17.2324C7.82487 17.3171 7.9681 17.3822 8.15039 17.4277C8.33268 17.4668 8.57031 17.5254 8.86328 17.6035C8.84375 17.6621 8.83398 17.7174 8.83398 17.7695C8.83398 17.8477 8.85677 17.9062 8.90234 17.9453C8.95443 17.9779 9.00651 18.0137 9.05859 18.0527C9.11719 18.0853 9.16927 18.1243 9.21484 18.1699C9.26693 18.2155 9.29297 18.2871 9.29297 18.3848C9.29297 18.4694 9.26042 18.5443 9.19531 18.6094C9.11719 18.6875 9.0651 18.7526 9.03906 18.8047C9.01953 18.8568 9 18.8991 8.98047 18.9316C8.96094 18.9577 8.92513 18.9805 8.87305 19C8.82096 19.013 8.72656 19.0228 8.58984 19.0293C8.27734 19.0488 7.9681 19.0586 7.66211 19.0586C7.54492 19.0586 7.42773 19.0553 7.31055 19.0488C7.19336 19.0488 7.07292 19.0488 6.94922 19.0488C6.63672 19.0488 6.33073 19.0586 6.03125 19.0781C5.84896 19.0911 5.66992 19.1204 5.49414 19.166C5.32487 19.2116 5.14583 19.2344 4.95703 19.2344C4.74219 19.2344 4.5957 19.1725 4.51758 19.0488C4.43945 18.9251 4.40039 18.7656 4.40039 18.5703C4.40039 18.3815 4.44271 18.2253 4.52734 18.1016C4.61198 17.9714 4.71615 17.8672 4.83984 17.7891C4.97005 17.7044 5.10677 17.6361 5.25 17.584C5.39974 17.5319 5.53646 17.4831 5.66016 17.4375C5.79036 17.3854 5.89779 17.3333 5.98242 17.2812C6.06706 17.2292 6.10938 17.1608 6.10938 17.0762C6.10938 16.998 6.0931 16.9232 6.06055 16.8516C6.03451 16.7799 6.02148 16.7051 6.02148 16.627C6.02148 16.5814 6.04427 16.4935 6.08984 16.3633C6.13542 16.2331 6.1582 16.0801 6.1582 15.9043C6.1582 15.8327 6.1582 15.7643 6.1582 15.6992C6.1582 15.6276 6.15495 15.556 6.14844 15.4844C6.10938 15.4648 6.08008 15.4258 6.06055 15.3672C6.04102 15.3086 6.02474 15.2467 6.01172 15.1816C6.00521 15.11 6.00195 15.0417 6.00195 14.9766C6.00195 14.9049 6.00195 14.8496 6.00195 14.8105C6.00195 14.5632 6.01823 14.319 6.05078 14.0781C6.08333 13.8307 6.09961 13.5833 6.09961 13.3359C6.09961 13.1797 6.08984 13.0267 6.07031 12.877C6.05078 12.7272 6.04102 12.5742 6.04102 12.418C6.04102 12.3724 6.05404 12.3398 6.08008 12.3203C6.02148 12.2747 5.99219 12.2096 5.99219 12.125C5.99219 12.0339 6.00521 11.9492 6.03125 11.8711C6.0638 11.793 6.08008 11.7116 6.08008 11.627C6.08008 11.4967 6.06706 11.3665 6.04102 11.2363C6.01497 11.1061 5.98568 10.9792 5.95312 10.8555C5.92708 10.7253 5.90104 10.5983 5.875 10.4746C5.85547 10.3444 5.8457 10.2142 5.8457 10.084C5.8457 10.0059 5.85547 9.93099 5.875 9.85938C5.90104 9.78776 5.92383 9.71615 5.94336 9.64453C5.9694 9.56641 5.99219 9.49154 6.01172 9.41992C6.03776 9.3418 6.05078 9.26042 6.05078 9.17578C6.05078 8.95443 6.02799 8.73958 5.98242 8.53125C5.94336 8.31641 5.92383 8.09831 5.92383 7.87695C5.92383 7.74674 5.95312 7.65234 6.01172 7.59375C6.07682 7.52865 6.14518 7.47656 6.2168 7.4375C6.28841 7.39844 6.35352 7.36263 6.41211 7.33008C6.47721 7.29102 6.50977 7.23568 6.50977 7.16406C6.50977 7.11849 6.48698 7.07943 6.44141 7.04688C6.40234 7.01432 6.36328 6.99805 6.32422 6.99805C6.23307 6.99805 6.15495 7.02734 6.08984 7.08594C6.02474 7.14453 5.94987 7.17383 5.86523 7.17383C5.81315 7.17383 5.76432 7.14128 5.71875 7.07617C5.67969 7.00456 5.63411 6.92969 5.58203 6.85156C5.53646 6.77344 5.48112 6.70182 5.41602 6.63672C5.35742 6.5651 5.28581 6.5293 5.20117 6.5293C5.12956 6.5293 5.05794 6.53906 4.98633 6.55859C4.91471 6.57812 4.8431 6.58789 4.77148 6.58789C4.67383 6.58789 4.61198 6.5651 4.58594 6.51953C4.5599 6.47396 4.54688 6.41536 4.54688 6.34375C4.54688 6.3112 4.54688 6.27865 4.54688 6.24609C4.55339 6.21354 4.55664 6.18099 4.55664 6.14844C4.55664 6.09635 4.54688 6.04102 4.52734 5.98242C4.50781 5.92383 4.46224 5.89453 4.39062 5.89453C4.35156 5.89453 4.3125 5.90104 4.27344 5.91406C4.36458 5.79688 4.48503 5.70898 4.63477 5.65039C4.78451 5.58529 4.94076 5.53646 5.10352 5.50391C5.27279 5.47135 5.44206 5.44857 5.61133 5.43555C5.78711 5.41602 5.94336 5.38997 6.08008 5.35742C6.13216 5.3444 6.17773 5.33464 6.2168 5.32812C6.26237 5.32161 6.3112 5.31836 6.36328 5.31836C6.48047 5.31836 6.5944 5.33138 6.70508 5.35742C6.82227 5.37695 6.9362 5.38672 7.04688 5.38672C7.17057 5.38672 7.26823 5.36068 7.33984 5.30859C7.41797 5.25 7.50911 5.2207 7.61328 5.2207C7.66536 5.24674 7.73372 5.2793 7.81836 5.31836C7.90299 5.35091 7.97135 5.36719 8.02344 5.36719C8.24479 5.36719 8.46289 5.35417 8.67773 5.32812C8.89258 5.30208 9.10742 5.28906 9.32227 5.28906C9.55664 5.28906 9.78125 5.32161 9.99609 5.38672C10.2174 5.44531 10.4355 5.51367 10.6504 5.5918C10.8717 5.66992 11.0898 5.74805 11.3047 5.82617C11.5195 5.9043 11.7409 5.96289 11.9688 6.00195C12.0469 6.01497 12.1217 6.04427 12.1934 6.08984C12.2715 6.13542 12.3464 6.19076 12.418 6.25586C12.4896 6.31445 12.5579 6.3763 12.623 6.44141C12.6947 6.50651 12.7598 6.56185 12.8184 6.60742C12.9095 6.67904 12.9811 6.76042 13.0332 6.85156C13.0918 6.94271 13.1471 7.03711 13.1992 7.13477C13.2578 7.22591 13.3164 7.31706 13.375 7.4082C13.4401 7.49284 13.5215 7.56771 13.6191 7.63281C13.7103 7.69141 13.7819 7.77604 13.834 7.88672C13.8861 7.99089 13.9219 8.10482 13.9414 8.22852C13.9674 8.35221 13.9837 8.47591 13.9902 8.59961C13.9967 8.72331 14 8.83398 14 8.93164ZM12.3887 9.52734C12.3887 9.11068 12.3236 8.73307 12.1934 8.39453C12.0697 8.04948 11.8874 7.75651 11.6465 7.51562C11.4121 7.26823 11.1257 7.07617 10.7871 6.93945C10.4486 6.80273 10.071 6.73438 9.6543 6.73438C9.58919 6.73438 9.49154 6.73438 9.36133 6.73438C9.23112 6.73438 9.08789 6.73763 8.93164 6.74414C8.77539 6.75065 8.61263 6.76042 8.44336 6.77344C8.27409 6.78646 8.11784 6.80599 7.97461 6.83203C7.83138 6.85156 7.70443 6.88086 7.59375 6.91992C7.48958 6.95247 7.42122 6.99479 7.38867 7.04688C7.3431 7.11849 7.27799 7.20638 7.19336 7.31055C7.11523 7.4082 7.07617 7.49609 7.07617 7.57422C7.07617 7.64583 7.0957 7.7207 7.13477 7.79883C7.17383 7.87044 7.21615 7.94857 7.26172 8.0332C7.3138 8.11784 7.35938 8.20573 7.39844 8.29688C7.44401 8.38151 7.4668 8.4694 7.4668 8.56055C7.41471 8.56706 7.36589 8.58333 7.32031 8.60938C7.27474 8.62891 7.25195 8.66797 7.25195 8.72656C7.25195 8.82422 7.28125 8.93164 7.33984 9.04883C7.40495 9.16602 7.4375 9.28646 7.4375 9.41016C7.4375 9.5013 7.41797 9.57292 7.37891 9.625C7.33984 9.67057 7.29753 9.70964 7.25195 9.74219C7.20638 9.77474 7.16406 9.80729 7.125 9.83984C7.08594 9.8724 7.06641 9.91471 7.06641 9.9668C7.06641 10.0254 7.10872 10.123 7.19336 10.2598C7.27799 10.3965 7.3724 10.543 7.47656 10.6992C7.58073 10.849 7.67513 10.9889 7.75977 11.1191C7.8444 11.2428 7.88672 11.3177 7.88672 11.3438C8.04297 11.3633 8.19596 11.373 8.3457 11.373C8.44336 11.373 8.60286 11.3698 8.82422 11.3633C9.05208 11.3503 9.28971 11.3372 9.53711 11.3242C9.78451 11.3047 10.0156 11.2852 10.2305 11.2656C10.4453 11.2461 10.5918 11.2266 10.6699 11.207C10.7546 11.1875 10.8132 11.1582 10.8457 11.1191C10.8783 11.0801 10.9108 11.041 10.9434 11.002C10.9759 10.9629 11.015 10.9303 11.0605 10.9043C11.1126 10.8717 11.194 10.8555 11.3047 10.8555C11.5065 10.8555 11.6758 10.8197 11.8125 10.748C11.9557 10.6764 12.0697 10.582 12.1543 10.4648C12.2389 10.3411 12.2975 10.2012 12.3301 10.0449C12.3691 9.88216 12.3887 9.70964 12.3887 9.52734Z" fill="black"/>
</g>
<defs>
<filter id="filter0_d_106_1684" x="0" y="0" width="18.5956" height="24.5956" filterUnits="userSpaceOnUse" color-interpolation-filters="sRGB">
<feFlood flood-opacity="0" result="BackgroundImageFix"/>
<feColorMatrix in="SourceAlpha" type="matrix" values="0 0 0 0 0 0 0 0 0 0 0 0 0 0 0 0 0 0 127 0" result="hardAlpha"/>
<feOffset dx="0.797784" dy="0.797784"/>
<feGaussianBlur stdDeviation="0.398892"/>
<feComposite in2="hardAlpha" operator="out"/>
<feColorMatrix type="matrix" values="0 0 0 0 0 0 0 0 0 0 0 0 0 0 0 0 0 0 0.25 0"/>
<feBlend mode="normal" in2="BackgroundImageFix" result="effect1_dropShadow_106_1684"/>
<feBlend mode="normal" in="SourceGraphic" in2="effect1_dropShadow_106_1684" result="shape"/>
</filter>
</defs>
</svg>
