<svg viewBox="0 0 16 16" fill="none" xmlns="http://www.w3.org/2000/svg">
<path d="M11.8043 10.471C11.83 10.4453 11.8604 10.425 11.8939 10.4111C11.9275 10.3972 11.9634 10.39 11.9997 10.39C12.036 10.39 12.0719 10.3972 12.1054 10.4111C12.1389 10.425 12.1694 10.4453 12.195 10.471C12.4267 10.7028 12.7237 10.8583 13.0462 10.9168C13.3687 10.9753 13.7013 10.934 13.9997 10.7983V13.333C14.1765 13.333 14.3461 13.4032 14.4711 13.5283C14.5961 13.6533 14.6663 13.8229 14.6663 13.9997C14.6663 14.1765 14.5961 14.3461 14.4711 14.4711C14.3461 14.5961 14.1765 14.6663 13.9997 14.6663H1.99967C1.82286 14.6663 1.65329 14.5961 1.52827 14.4711C1.40325 14.3461 1.33301 14.1765 1.33301 13.9997C1.33301 13.8229 1.40325 13.6533 1.52827 13.5283C1.65329 13.4032 1.82286 13.333 1.99967 13.333V10.7983C2.59301 11.0683 3.31634 10.959 3.80434 10.4717C3.82998 10.446 3.86042 10.4256 3.89394 10.4117C3.92746 10.3978 3.96339 10.3907 3.99967 10.3907C4.03596 10.3907 4.07189 10.3978 4.10541 10.4117C4.13893 10.4256 4.16937 10.446 4.19501 10.4717C4.34445 10.6211 4.52186 10.7397 4.71712 10.8206C4.91238 10.9014 5.12166 10.9431 5.33301 10.9431C5.54436 10.9431 5.75363 10.9014 5.94889 10.8206C6.14415 10.7397 6.32157 10.6211 6.47101 10.4717C6.49664 10.446 6.52709 10.4256 6.56061 10.4117C6.59413 10.3978 6.63006 10.3907 6.66634 10.3907C6.70263 10.3907 6.73856 10.3978 6.77207 10.4117C6.80559 10.4256 6.83604 10.446 6.86167 10.4717C7.01112 10.6211 7.18853 10.7397 7.38379 10.8206C7.57905 10.9014 7.78833 10.9431 7.99967 10.9431C8.21102 10.9431 8.4203 10.9014 8.61556 10.8206C8.81082 10.7397 8.98823 10.6211 9.13767 10.4717C9.16331 10.446 9.19376 10.4256 9.22727 10.4117C9.26079 10.3978 9.29672 10.3907 9.33301 10.3907C9.36929 10.3907 9.40522 10.3978 9.43874 10.4117C9.47226 10.4256 9.50271 10.446 9.52834 10.4717C9.67778 10.6211 9.8552 10.7397 10.0505 10.8206C10.2457 10.9014 10.455 10.9431 10.6663 10.9431C10.8777 10.9431 11.087 10.9014 11.2822 10.8206C11.4775 10.7397 11.6549 10.6211 11.8043 10.4717V10.471ZM10.6663 3.99967C10.8432 3.99967 11.0127 4.06991 11.1377 4.19494C11.2628 4.31996 11.333 4.48953 11.333 4.66634V5.99967H11.9997C12.5301 5.99967 13.0388 6.21039 13.4139 6.58546C13.789 6.96053 13.9997 7.46924 13.9997 7.99967V9.05701L13.5283 9.52834C13.5027 9.55402 13.4723 9.5744 13.4387 9.5883C13.4052 9.6022 13.3693 9.60935 13.333 9.60935C13.2967 9.60935 13.2608 9.6022 13.2273 9.5883C13.1938 9.5744 13.1633 9.55402 13.1377 9.52834C12.9882 9.37889 12.8108 9.26034 12.6156 9.17946C12.4203 9.09858 12.211 9.05695 11.9997 9.05695C11.7883 9.05695 11.579 9.09858 11.3838 9.17946C11.1885 9.26034 11.0111 9.37889 10.8617 9.52834C10.836 9.55402 10.8056 9.5744 10.7721 9.5883C10.7386 9.6022 10.7026 9.60935 10.6663 9.60935C10.6301 9.60935 10.5941 9.6022 10.5606 9.5883C10.5271 9.5744 10.4966 9.55402 10.471 9.52834C10.3216 9.37889 10.1442 9.26034 9.94889 9.17946C9.75363 9.09858 9.54436 9.05695 9.33301 9.05695C9.12166 9.05695 8.91238 9.09858 8.71712 9.17946C8.52186 9.26034 8.34445 9.37889 8.19501 9.52834C8.16937 9.55402 8.13893 9.5744 8.10541 9.5883C8.07189 9.6022 8.03596 9.60935 7.99967 9.60935C7.96339 9.60935 7.92746 9.6022 7.89394 9.5883C7.86042 9.5744 7.82998 9.55402 7.80434 9.52834C7.6549 9.37889 7.47748 9.26034 7.28223 9.17946C7.08697 9.09858 6.87769 9.05695 6.66634 9.05695C6.45499 9.05695 6.24572 9.09858 6.05046 9.17946C5.8552 9.26034 5.67778 9.37889 5.52834 9.52834C5.50271 9.55402 5.47226 9.5744 5.43874 9.5883C5.40522 9.6022 5.36929 9.60935 5.33301 9.60935C5.29672 9.60935 5.26079 9.6022 5.22728 9.5883C5.19376 9.5744 5.16331 9.55402 5.13767 9.52834C4.98823 9.37889 4.81082 9.26034 4.61556 9.17946C4.4203 9.09858 4.21102 9.05695 3.99967 9.05695C3.78833 9.05695 3.57905 9.09858 3.38379 9.17946C3.18853 9.26034 3.01112 9.37889 2.86167 9.52834C2.83604 9.55402 2.80559 9.5744 2.77207 9.5883C2.73856 9.6022 2.70263 9.60935 2.66634 9.60935C2.63006 9.60935 2.59413 9.6022 2.56061 9.5883C2.52709 9.5744 2.49664 9.55402 2.47101 9.52834L1.99967 9.05701V7.99967C1.99967 7.46924 2.21039 6.96053 2.58546 6.58546C2.96053 6.21039 3.46924 5.99967 3.99967 5.99967H4.66634V4.66634C4.66634 4.48953 4.73658 4.31996 4.8616 4.19494C4.98663 4.06991 5.1562 3.99967 5.33301 3.99967C5.50982 3.99967 5.67939 4.06991 5.80441 4.19494C5.92944 4.31996 5.99967 4.48953 5.99967 4.66634V5.99967H7.33301V4.66634C7.33301 4.48953 7.40325 4.31996 7.52827 4.19494C7.65329 4.06991 7.82286 3.99967 7.99967 3.99967C8.17649 3.99967 8.34605 4.06991 8.47108 4.19494C8.5961 4.31996 8.66634 4.48953 8.66634 4.66634V5.99967H9.99967V4.66634C9.99967 4.48953 10.0699 4.31996 10.1949 4.19494C10.32 4.06991 10.4895 3.99967 10.6663 3.99967ZM8.33301 1.33301C8.12034 1.75834 8.31434 2.03301 8.48301 2.27301C8.57901 2.40834 8.66634 2.53301 8.66634 2.66634C8.66634 2.84315 8.5961 3.01272 8.47108 3.13775C8.34605 3.26277 8.17649 3.33301 7.99967 3.33301C7.82286 3.33301 7.65329 3.26277 7.52827 3.13775C7.40325 3.01272 7.33301 2.84315 7.33301 2.66634C7.33301 2.29834 7.66634 1.66634 8.33301 1.33301ZM5.66634 1.33301C5.45367 1.75834 5.64767 2.03301 5.81634 2.27301C5.91234 2.40834 5.99967 2.53301 5.99967 2.66634C5.99967 2.84315 5.92944 3.01272 5.80441 3.13775C5.67939 3.26277 5.50982 3.33301 5.33301 3.33301C5.1562 3.33301 4.98663 3.26277 4.8616 3.13775C4.73658 3.01272 4.66634 2.84315 4.66634 2.66634C4.66634 2.29834 4.99967 1.66634 5.66634 1.33301ZM10.9997 1.33301C10.787 1.75834 10.981 2.03301 11.1497 2.27301C11.2457 2.40834 11.333 2.53301 11.333 2.66634C11.333 2.84315 11.2628 3.01272 11.1377 3.13775C11.0127 3.26277 10.8432 3.33301 10.6663 3.33301C10.4895 3.33301 10.32 3.26277 10.1949 3.13775C10.0699 3.01272 9.99967 2.84315 9.99967 2.66634C9.99967 2.29834 10.333 1.66634 10.9997 1.33301Z"
    fill="currentColor"/>
</svg>
