<svg viewBox="0 0 16 16" fill="none" xmlns="http://www.w3.org/2000/svg">
<path d="M1.37834 3.65499L7.29501 9.57233C7.47004 9.74748 7.70384 9.85147 7.95113 9.86415C8.19843 9.87684 8.44164 9.79732 8.63367 9.64099L8.70967 9.57233L14.6223 3.65899C14.6415 3.73233 14.6543 3.80721 14.661 3.88366L14.6663 4.00033V12.0003C14.6664 12.3367 14.5394 12.6607 14.3107 12.9074C14.0819 13.154 13.7684 13.3051 13.433 13.3303L13.333 13.3337H2.66634C2.32996 13.3338 2.00596 13.2067 1.75931 12.978C1.51265 12.7493 1.36157 12.4358 1.33634 12.1003L1.33301 12.0003V4.00033C1.33301 3.92033 1.33967 3.84255 1.35301 3.76699L1.37834 3.65499ZM13.333 2.66699C13.4139 2.66699 13.4928 2.67388 13.5697 2.68766L13.683 2.71366L8.00301 8.39366L2.32101 2.71233C2.39479 2.69233 2.47034 2.67899 2.54767 2.67233L2.66634 2.66699H13.333Z"
    fill="currentColor"/>
</svg>
