<svg width="32" height="32" viewBox="0 0 32 32" fill="none" xmlns="http://www.w3.org/2000/svg">
<path fill-rule="evenodd" clip-rule="evenodd" d="M18.0987 4.18356C17.8577 4.14105 17.6097 4.165 17.3813 4.25284C17.153 4.34067 16.9528 4.48907 16.8024 4.68209C16.6521 4.87511 16.5571 5.10546 16.5278 5.34839C16.4985 5.59131 16.5359 5.83764 16.636 6.0609C17.3004 7.54076 17.4991 9.18761 17.206 10.783C16.9128 12.3785 16.1416 13.8471 14.9946 14.9941C13.8475 16.1411 12.3789 16.9123 10.7835 17.2055C9.18808 17.4987 7.54123 17.2999 6.06137 16.6356C5.83805 16.5351 5.59157 16.4974 5.34843 16.5265C5.10529 16.5557 4.8747 16.6506 4.68148 16.801C4.48826 16.9515 4.33971 17.1518 4.25183 17.3803C4.16394 17.6089 4.14004 17.8571 4.1827 18.0982C4.70458 21.055 6.31592 23.7087 8.69867 25.5356C11.0814 27.3624 14.0624 28.2297 17.0533 27.9661C20.0442 27.7026 22.8277 26.3274 24.8542 24.112C26.8808 21.8967 28.0033 19.002 28 15.9996C28.0002 13.1808 27.0082 10.4519 25.1977 8.29132C23.3873 6.13079 20.874 4.67654 18.0987 4.18356Z"
    fill="currentColor"/>
</svg>
