<svg viewBox="0 0 16 16" fill="none" xmlns="http://www.w3.org/2000/svg">
<path fill-rule="evenodd" clip-rule="evenodd" d="M11.035 14.755C10.075 14.7197 7.35433 14.3437 4.50499 11.495C1.65633 8.64566 1.28099 5.92566 1.24499 4.96499C1.19166 3.50099 2.31299 2.07899 3.60833 1.52366C3.76431 1.4563 3.93513 1.43066 4.10401 1.44924C4.2729 1.46782 4.43405 1.52999 4.57166 1.62966C5.63833 2.40699 6.37433 3.58299 7.00633 4.50766C7.14538 4.71081 7.20484 4.95802 7.17336 5.20219C7.14189 5.44635 7.02169 5.67041 6.83566 5.83166L5.53499 6.79766C5.47215 6.84303 5.42792 6.90968 5.41051 6.9852C5.3931 7.06073 5.40369 7.14001 5.44033 7.20832C5.73499 7.74366 6.25899 8.54099 6.85899 9.14099C7.45899 9.74099 8.29433 10.2997 8.86699 10.6277C8.93879 10.668 9.02331 10.6792 9.10316 10.6591C9.18302 10.6391 9.25214 10.5891 9.29633 10.5197L10.143 9.23099C10.2987 9.02422 10.5283 8.8857 10.7838 8.84444C11.0393 8.80319 11.3008 8.86239 11.5137 9.00966C12.4517 9.65899 13.5463 10.3823 14.3477 11.4083C14.4554 11.5469 14.524 11.7119 14.5461 11.8861C14.5683 12.0602 14.5433 12.2371 14.4737 12.3983C13.9157 13.7003 12.5037 14.809 11.035 14.755Z"
    fill="currentColor"/>
</svg>
