<svg width="32" height="32" viewBox="0 0 32 32" fill="none" xmlns="http://www.w3.org/2000/svg">
<path d="M15.9998 25.3337C16.3534 25.3337 16.6926 25.4741 16.9426 25.7242C17.1927 25.9742 17.3332 26.3134 17.3332 26.667V28.0003C17.3332 28.3539 17.1927 28.6931 16.9426 28.9431C16.6926 29.1932 16.3534 29.3337 15.9998 29.3337C15.6462 29.3337 15.3071 29.1932 15.057 28.9431C14.807 28.6931 14.6665 28.3539 14.6665 28.0003V26.667C14.6665 26.3134 14.807 25.9742 15.057 25.7242C15.3071 25.4741 15.6462 25.3337 15.9998 25.3337ZM24.4852 22.6003L25.4278 23.543C25.6707 23.7945 25.8051 24.1313 25.8021 24.4809C25.799 24.8305 25.6588 25.1649 25.4116 25.4121C25.1644 25.6593 24.83 25.7995 24.4804 25.8026C24.1308 25.8056 23.794 25.6712 23.5425 25.4283L22.5998 24.4857C22.3569 24.2342 22.2226 23.8974 22.2256 23.5478C22.2286 23.1982 22.3689 22.8638 22.6161 22.6166C22.8633 22.3694 23.1977 22.2291 23.5473 22.2261C23.8969 22.2231 24.2337 22.3574 24.4852 22.6003ZM7.51449 22.6003C7.75444 22.3612 8.0764 22.2224 8.415 22.212C8.7536 22.2017 9.08344 22.3206 9.33753 22.5447C9.59162 22.7687 9.7509 23.0811 9.78302 23.4183C9.81515 23.7555 9.71771 24.0923 9.51049 24.3603L9.39983 24.4857L8.45716 25.4283C8.21721 25.6675 7.89525 25.8063 7.55665 25.8166C7.21805 25.827 6.88821 25.708 6.63412 25.484C6.38003 25.2599 6.22075 24.9476 6.18863 24.6104C6.1565 24.2731 6.25394 23.9363 6.46116 23.6683L6.57182 23.543L7.51449 22.6003ZM15.9998 8.00033C18.1216 8.00033 20.1564 8.84318 21.6567 10.3435C23.157 11.8438 23.9998 13.8786 23.9998 16.0003C23.9998 18.1221 23.157 20.1569 21.6567 21.6572C20.1564 23.1575 18.1216 24.0003 15.9998 24.0003C13.8781 24.0003 11.8433 23.1575 10.343 21.6572C8.84268 20.1569 7.99983 18.1221 7.99983 16.0003C7.99983 13.8786 8.84268 11.8438 10.343 10.3435C11.8433 8.84318 13.8781 8.00033 15.9998 8.00033ZM5.33316 14.667C5.673 14.6674 5.99987 14.7975 6.24698 15.0308C6.4941 15.2641 6.6428 15.5829 6.66272 15.9222C6.68264 16.2614 6.57226 16.5955 6.35414 16.8561C6.13602 17.1167 5.82662 17.2842 5.48916 17.3243L5.33316 17.3337H3.99982C3.65999 17.3333 3.33312 17.2032 3.086 16.9699C2.83889 16.7366 2.69018 16.4177 2.67026 16.0785C2.65035 15.7392 2.76072 15.4052 2.97884 15.1445C3.19697 14.8839 3.50636 14.7165 3.84382 14.6763L3.99982 14.667H5.33316ZM27.9998 14.667C28.3534 14.667 28.6926 14.8075 28.9426 15.0575C29.1927 15.3076 29.3332 15.6467 29.3332 16.0003C29.3332 16.3539 29.1927 16.6931 28.9426 16.9431C28.6926 17.1932 28.3534 17.3337 27.9998 17.3337H26.6665C26.3129 17.3337 25.9737 17.1932 25.7237 16.9431C25.4736 16.6931 25.3332 16.3539 25.3332 16.0003C25.3332 15.6467 25.4736 15.3076 25.7237 15.0575C25.9737 14.8075 26.3129 14.667 26.6665 14.667H27.9998ZM6.57182 6.57233C6.80142 6.34276 7.10688 6.20485 7.43092 6.18447C7.75495 6.1641 8.07529 6.26266 8.33183 6.46166L8.45716 6.57233L9.39983 7.51499C9.63896 7.75494 9.77779 8.0769 9.78813 8.4155C9.79847 8.7541 9.67954 9.08394 9.45549 9.33803C9.23145 9.59212 8.91909 9.7514 8.58186 9.78352C8.24463 9.81565 7.90781 9.71821 7.63983 9.51099L7.51449 9.40033L6.57182 8.45766C6.32186 8.20762 6.18144 7.86854 6.18144 7.51499C6.18144 7.16144 6.32186 6.82236 6.57182 6.57233ZM25.4278 6.57233C25.6778 6.82236 25.8182 7.16144 25.8182 7.51499C25.8182 7.86854 25.6778 8.20762 25.4278 8.45766L24.4852 9.40033C24.3622 9.52767 24.215 9.62925 24.0524 9.69913C23.8897 9.76901 23.7147 9.80579 23.5377 9.80733C23.3607 9.80886 23.1851 9.77513 23.0212 9.70809C22.8574 9.64105 22.7085 9.54204 22.5833 9.41685C22.4581 9.29166 22.3591 9.14279 22.2921 8.97893C22.225 8.81507 22.1913 8.6395 22.1928 8.46246C22.1944 8.28542 22.2311 8.11046 22.301 7.94779C22.3709 7.78511 22.4725 7.63799 22.5998 7.51499L23.5425 6.57233C23.7925 6.32236 24.1316 6.18194 24.4852 6.18194C24.8387 6.18194 25.1778 6.32236 25.4278 6.57233ZM15.9998 2.66699C16.3534 2.66699 16.6926 2.80747 16.9426 3.05752C17.1927 3.30756 17.3332 3.6467 17.3332 4.00033V5.33366C17.3332 5.68728 17.1927 6.02642 16.9426 6.27647C16.6926 6.52652 16.3534 6.66699 15.9998 6.66699C15.6462 6.66699 15.3071 6.52652 15.057 6.27647C14.807 6.02642 14.6665 5.68728 14.6665 5.33366V4.00033C14.6665 3.6467 14.807 3.30756 15.057 3.05752C15.3071 2.80747 15.6462 2.66699 15.9998 2.66699Z"
    fill="currentColor"/>
</svg>
