<svg width="32" height="32" viewBox="0 0 32 32" fill="none" xmlns="http://www.w3.org/2000/svg">
<g clip-path="url(#clip0_114_228)">
<path fill-rule="evenodd" clip-rule="evenodd" d="M15.0576 11.0574C15.3076 10.8074 15.6467 10.667 16.0002 10.667C16.3538 10.667 16.6929 10.8074 16.9429 11.0574L24.4856 18.6C24.7285 18.8515 24.8628 19.1883 24.8598 19.5379C24.8568 19.8875 24.7165 20.2219 24.4693 20.4691C24.2221 20.7163 23.8877 20.8566 23.5381 20.8596C23.1885 20.8626 22.8517 20.7283 22.6002 20.4854L16.0002 13.8854L9.40024 20.4854C9.14877 20.7283 8.81197 20.8626 8.46237 20.8596C8.11278 20.8566 7.77836 20.7163 7.53115 20.4691C7.28394 20.2219 7.14371 19.8875 7.14068 19.5379C7.13764 19.1883 7.27203 18.8515 7.51491 18.6L15.0576 11.0574Z"
    fill="currentColor"/>
</g>
<defs>
<clipPath id="clip0_114_228">
<rect width="32" height="32" fill="white"/>
</clipPath>
</defs>
</svg>
