<svg viewBox="0 0 16 16" fill="none" xmlns="http://www.w3.org/2000/svg">
<path d="M8 8.66634C9.59733 8.66634 11.05 9.12901 12.1187 9.78101C12.652 10.1063 13.108 10.4903 13.4373 10.9077C13.7613 11.3177 14 11.8083 14 12.333C14 12.8963 13.726 13.3403 13.3313 13.657C12.958 13.957 12.4653 14.1557 11.942 14.2943C10.89 14.5723 9.486 14.6663 8 14.6663C6.514 14.6663 5.11 14.573 4.058 14.2943C3.53467 14.1557 3.042 13.957 2.66867 13.657C2.27333 13.3397 2 12.8963 2 12.333C2 11.8083 2.23867 11.3177 2.56267 10.907C2.892 10.4903 3.34733 10.107 3.88133 9.78034C4.95 9.12967 6.40333 8.66634 8 8.66634ZM8 1.33301C8.88406 1.33301 9.7319 1.6842 10.357 2.30932C10.9821 2.93444 11.3333 3.78229 11.3333 4.66634C11.3333 5.5504 10.9821 6.39824 10.357 7.02336C9.7319 7.64848 8.88406 7.99967 8 7.99967C7.11595 7.99967 6.2681 7.64848 5.64298 7.02336C5.01786 6.39824 4.66667 5.5504 4.66667 4.66634C4.66667 3.78229 5.01786 2.93444 5.64298 2.30932C6.2681 1.6842 7.11595 1.33301 8 1.33301Z"
    fill="currentColor"/>
</svg>
