<svg width="40" height="40" viewBox="0 0 40 40" fill="none" xmlns="http://www.w3.org/2000/svg">
<rect width="40" height="40" rx="4" fill="white"/>
<path d="M14.1216 28.8697C17.1444 29.6197 19.8671 27.0897 20.0557 26.8697L25.623 21.807C25.9307 21.5273 26.1059 21.1429 26.1093 20.7403L26.196 10.6299C26.1983 10.3611 26.3154 10.1046 26.5211 9.91802L30.1425 6.63257C30.565 6.24928 31.2376 6.26091 31.6449 6.65854C31.8357 6.84491 31.9424 7.09368 31.9424 7.35254V22.3463C31.9424 23.0199 31.6536 23.665 31.1414 24.1354L21.1234 33.3377C20.5002 33.9101 19.5041 33.9058 18.8866 33.328" fill="url(#paint0_linear_150_1044)"/>
<path d="M26.1094 28.7788C23.0866 29.5288 20.1222 27.0897 19.9336 26.8697L14.3662 21.807C14.0586 21.5273 13.8834 21.1429 13.8799 20.7403L13.7933 10.6299C13.791 10.3611 13.6738 10.1046 13.4682 9.91802L9.84675 6.63257C9.42427 6.24928 8.75164 6.26091 8.3444 6.65854C8.15353 6.84491 8.04688 7.09368 8.04688 7.35254L8.04688 22.3463C8.04688 23.0199 8.33567 23.665 8.84784 24.1354L18.8793 33.35C19.4972 33.9175 20.4829 33.9188 21.1025 33.3528" fill="url(#paint1_linear_150_1044)"/>
<path fill-rule="evenodd" clip-rule="evenodd" d="M19.5475 11.024L15.3661 7.21985C15.1552 7.02793 15.1495 6.71139 15.3534 6.51284C15.4535 6.41539 15.5913 6.36035 15.7354 6.36035H24.0882C24.3816 6.36035 24.6194 6.58421 24.6194 6.86035C24.6194 6.99569 24.5611 7.12525 24.4578 7.21943L20.2864 11.0236C20.0806 11.2113 19.7536 11.2115 19.5475 11.024Z" fill="url(#paint2_linear_150_1044)"/>
<defs>
<linearGradient id="paint0_linear_150_1044" x1="-1209.17" y1="6.35254" x2="-1209.17" y2="2747.52" gradientUnits="userSpaceOnUse">
<stop stop-color="#29CDFF"/>
<stop offset="0.378601" stop-color="#148EFF"/>
<stop offset="1" stop-color="#0A60FF"/>
</linearGradient>
<linearGradient id="paint1_linear_150_1044" x1="-349.937" y1="-1002.66" x2="3987.13" y2="2503.72" gradientUnits="userSpaceOnUse">
<stop stop-color="#29CDFF"/>
<stop offset="1" stop-color="#0F78FF"/>
</linearGradient>
<linearGradient id="paint2_linear_150_1044" x1="656.65" y1="-165.104" x2="560.055" y2="591.535" gradientUnits="userSpaceOnUse">
<stop stop-color="#FA8E7D"/>
<stop offset="0.512635" stop-color="#F74A5C"/>
<stop offset="1" stop-color="#F51D2C"/>
</linearGradient>
</defs>
</svg>
