<svg width="40" height="40" viewBox="0 0 40 40" fill="none" xmlns="http://www.w3.org/2000/svg">
<rect width="40" height="40" rx="4" fill="black"/>
<g clip-path="url(#clip0_150_1161)">
<path d="M14.6663 35.9997C17.6103 35.9997 19.9997 33.6103 19.9997 30.6663V25.333H14.6663C11.7223 25.333 9.33301 27.7223 9.33301 30.6663C9.33301 33.6103 11.7223 35.9997 14.6663 35.9997Z" fill="#0ACF83"/>
<path d="M9.33301 20.0003C9.33301 17.0563 11.7223 14.667 14.6663 14.667H19.9997V25.3337H14.6663C11.7223 25.3337 9.33301 22.9443 9.33301 20.0003Z" fill="#A259FF"/>
<path d="M9.33301 9.33333C9.33301 6.38933 11.7223 4 14.6663 4H19.9997V14.6667H14.6663C11.7223 14.6667 9.33301 12.2773 9.33301 9.33333Z" fill="#F24E1E"/>
<path d="M20 4H25.3333C28.2773 4 30.6667 6.38933 30.6667 9.33333C30.6667 12.2773 28.2773 14.6667 25.3333 14.6667H20V4Z" fill="#FF7262"/>
<path d="M30.6667 20.0003C30.6667 22.9443 28.2773 25.3337 25.3333 25.3337C22.3893 25.3337 20 22.9443 20 20.0003C20 17.0563 22.3893 14.667 25.3333 14.667C28.2773 14.667 30.6667 17.0563 30.6667 20.0003Z" fill="#1ABCFE"/>
</g>
<defs>
<clipPath id="clip0_150_1161">
<rect width="21.3376" height="32" fill="white" transform="translate(9.33105 4)"/>
</clipPath>
</defs>
</svg>
