<svg width="40" height="40" viewBox="0 0 40 40" fill="none" xmlns="http://www.w3.org/2000/svg">
<rect width="40" height="40" rx="4" fill="white"/>
<g clip-path="url(#clip0_150_1094)">
<path fill-rule="evenodd" clip-rule="evenodd" d="M20 4C11.16 4 4 11.16 4 20C4 27.08 8.58 33.06 14.94 35.18C15.74 35.32 16.04 34.84 16.04 34.42C16.04 34.04 16.02 32.78 16.02 31.44C12 32.18 10.96 30.46 10.64 29.56C10.46 29.1 9.68 27.68 9 27.3C8.44 27 7.64 26.26 8.98 26.24C10.24 26.22 11.14 27.4 11.44 27.88C12.88 30.3 15.18 29.62 16.1 29.2C16.24 28.16 16.66 27.46 17.12 27.06C13.56 26.66 9.84 25.28 9.84 19.16C9.84 17.42 10.46 15.98 11.48 14.86C11.32 14.46 10.76 12.82 11.64 10.62C11.64 10.62 12.98 10.2 16.04 12.26C17.32 11.9 18.68 11.72 20.04 11.72C21.4 11.72 22.76 11.9 24.04 12.26C27.1 10.18 28.44 10.62 28.44 10.62C29.32 12.82 28.76 14.46 28.6 14.86C29.62 15.98 30.24 17.4 30.24 19.16C30.24 25.3 26.5 26.66 22.94 27.06C23.52 27.56 24.02 28.52 24.02 30.02C24.02 32.16 24 33.88 24 34.42C24 34.84 24.3 35.34 25.1 35.18C28.2763 34.1077 31.0363 32.0664 32.9917 29.3432C34.947 26.6201 35.9991 23.3524 36 20C36 11.16 28.84 4 20 4Z" fill="black"/>
</g>
<defs>
<clipPath id="clip0_150_1094">
<rect width="32" height="32" fill="white" transform="translate(4 4)"/>
</clipPath>
</defs>
</svg>
