<svg width="40" height="40" viewBox="0 0 40 40" fill="none" xmlns="http://www.w3.org/2000/svg">
<g clip-path="url(#clip0_150_1007)">
<g clip-path="url(#clip1_150_1007)">
<path d="M0 0H40V40H0V0Z" fill="#F7DF1E"/>
<path d="M10.5176 33.4269L13.5785 31.5748C14.169 32.6218 14.7062 33.5075 15.995 33.5075C17.23 33.5075 18.009 33.0243 18.009 31.145V18.364H21.7677V31.1983C21.7677 35.0916 19.4858 36.8637 16.1563 36.8637C13.1493 36.8637 11.4033 35.3062 10.5176 33.4269ZM23.8096 33.0243L26.8706 31.2523C27.6763 32.5678 28.7233 33.5348 30.576 33.5348C32.1335 33.5348 33.1265 32.7558 33.1265 31.6821C33.1265 30.3932 32.1062 29.9367 30.3881 29.185L29.4484 28.7818C26.736 27.6275 24.9373 26.1786 24.9373 23.1164C24.9373 20.2973 27.0852 18.1494 30.4414 18.1494C32.8312 18.1494 34.55 18.9818 35.7849 21.1564L32.8579 23.0358C32.2135 21.8815 31.5157 21.425 30.4414 21.425C29.3411 21.425 28.6427 22.1234 28.6427 23.0358C28.6427 24.164 29.3411 24.6231 30.9519 25.3183L31.8915 25.7215C35.0865 27.0904 36.8858 28.4866 36.8858 31.6262C36.8858 35.0097 34.2274 36.8618 30.6566 36.8618C27.1646 36.8618 24.9106 35.1977 23.8096 33.0224" fill="black"/>
</g>
</g>
<defs>
<clipPath id="clip0_150_1007">
<path d="M0 4C0 1.79086 1.79086 0 4 0H36C38.2091 0 40 1.79086 40 4V36C40 38.2091 38.2091 40 36 40H4C1.79086 40 0 38.2091 0 36V4Z" fill="white"/>
</clipPath>
<clipPath id="clip1_150_1007">
<rect width="40" height="40" fill="white"/>
</clipPath>
</defs>
</svg>
