<svg width="40" height="40" viewBox="0 0 40 40" fill="none" xmlns="http://www.w3.org/2000/svg">
<g clip-path="url(#clip0_150_1199)">
<g clip-path="url(#clip1_150_1199)">
<rect width="40" height="40" fill="black"/>
<path d="M32.5 0H7.5C3.35786 0 0 3.35786 0 7.5V32.5C0 36.6421 3.35786 40 7.5 40H32.5C36.6421 40 40 36.6421 40 32.5V7.5C40 3.35786 36.6421 0 32.5 0Z" fill="black"/>
<path d="M7.97497 14.2308C8.0578 13.4282 8.29822 12.6499 8.68244 11.9404C9.06667 11.231 9.58714 10.6043 10.214 10.0964C10.8401 9.58741 11.5606 9.207 12.334 8.977C13.1075 8.747 13.9187 8.67193 14.7212 8.7561C16.2333 8.91355 17.6333 9.62603 18.6506 10.7558L29.2443 22.5208C29.7847 23.12 30.2015 23.82 30.4708 24.5806C30.7401 25.3412 30.8567 26.1475 30.8137 26.9533C30.7721 27.7591 30.5719 28.5487 30.2245 29.2769C29.8771 30.0052 29.3894 30.6577 28.7893 31.197C27.6596 32.2143 26.1927 32.7766 24.6725 32.7752L10.3125 32.7602C9.80703 32.76 9.30659 32.6601 8.8398 32.4662C8.37301 32.2724 7.94904 31.9884 7.59215 31.6305C7.23494 31.2729 6.95177 30.8484 6.75883 30.3812C6.5659 29.914 6.46699 29.4134 6.46778 28.908V28.7642L7.97497 14.2308ZM13.7587 14.4639C13.6506 14.5514 13.5843 14.6717 13.5697 14.8117L12.2915 27.1374L24.6781 27.1499C24.7906 27.1499 24.8993 27.1139 24.9884 27.0474L25.0256 27.017C25.1309 26.922 25.189 26.798 25.1965 26.6589C25.2037 26.5199 25.159 26.3902 25.064 26.2849L14.4703 14.5195C14.3845 14.4243 14.2665 14.3642 14.139 14.3508C14.0713 14.3432 14.0027 14.3494 13.9374 14.3688C13.8721 14.3882 13.8113 14.4206 13.7587 14.4639Z" fill="#7A1818"/>
<path d="M10.1654 7.21973L29.6873 7.24004C30.1928 7.24028 30.6932 7.34021 31.16 7.53411C31.6268 7.72801 32.0507 8.01207 32.4076 8.37004C32.7648 8.72759 33.0479 9.15206 33.2409 9.61917C33.4338 10.0863 33.5327 10.5868 33.532 11.0922V11.2363L33.517 11.3797L31.4907 30.9038C31.4386 31.4065 31.2878 31.894 31.0471 32.3384C30.8063 32.7827 30.4803 33.1753 30.0876 33.4935C29.3216 34.1151 28.3461 34.4189 27.3626 34.342C26.3791 34.2651 25.4627 33.8135 24.8026 33.0804L7.30198 13.6438C6.96361 13.2683 6.7026 12.8299 6.5339 12.3534C6.36521 11.877 6.29213 11.3719 6.31885 10.8672C6.37052 9.88216 6.79846 8.95454 7.51432 8.2759C8.23019 7.59725 9.17931 7.2194 10.1657 7.22035M14.1554 12.8491L26.3085 26.3466L27.7079 12.8632L14.1554 12.8491Z" fill="#FF6A33"/>
</g>
</g>
<defs>
<clipPath id="clip0_150_1199">
<path d="M0 4C0 1.79086 1.79086 0 4 0H36C38.2091 0 40 1.79086 40 4V36C40 38.2091 38.2091 40 36 40H4C1.79086 40 0 38.2091 0 36V4Z" fill="white"/>
</clipPath>
<clipPath id="clip1_150_1199">
<rect width="40" height="40" fill="white"/>
</clipPath>
</defs>
</svg>
