<svg width="40" height="40" viewBox="0 0 40 40" fill="none" xmlns="http://www.w3.org/2000/svg">
<rect width="40" height="40" rx="4" fill="white"/>
<g clip-path="url(#clip0_150_1158)">
<path d="M9.94839 9.60865C10.9384 10.4157 11.3134 10.3587 13.1824 10.2337L30.8024 9.17665C31.1774 9.17665 30.8654 8.80165 30.7394 8.73865L27.8124 6.62365C27.2554 6.18565 26.5054 5.69165 25.0724 5.81065L8.01539 7.06065C7.39039 7.11765 7.26539 7.43065 7.51539 7.68065L9.94839 9.60865ZM11.0054 13.7186V32.2546C11.0054 33.2496 11.5004 33.6246 12.6204 33.5616L31.9854 32.4416C33.1054 32.3786 33.2354 31.6966 33.2354 30.8846V12.4736C33.2354 11.6606 32.9224 11.2286 32.2354 11.2916L12.0014 12.4736C11.2514 12.5366 11.0064 12.9056 11.0064 13.7136L11.0054 13.7186ZM30.1204 14.7076C30.2454 15.2706 30.1204 15.8276 29.5574 15.8956L28.6254 16.0836V29.7656C27.8124 30.2036 27.0684 30.4536 26.4484 30.4536C25.4484 30.4536 25.1984 30.1406 24.4534 29.2086L18.3494 19.6256V28.8966L20.2814 29.3346C20.2814 29.3346 20.2814 30.4546 18.7244 30.4546L14.4274 30.7046C14.3024 30.4546 14.4274 29.8296 14.8654 29.7096L15.9854 29.3966V17.1416L14.4284 17.0166C14.3034 16.4536 14.6164 15.6466 15.4854 15.5846L20.0944 15.2716L26.4484 24.9796V16.3906L24.8284 16.2026C24.7034 15.5206 25.1984 15.0206 25.8234 14.9626L30.1204 14.7076ZM6.58339 5.37965L24.3284 4.07265C26.5054 3.88465 27.0684 4.00965 28.4374 5.00465L34.1044 8.98865C35.0364 9.67065 35.3494 9.85865 35.3494 10.6037V32.4426C35.3494 33.8126 34.8494 34.6196 33.1094 34.7446L12.4944 35.9896C11.1924 36.0526 10.5674 35.8646 9.87939 34.9946L5.70739 29.5776C4.96239 28.5826 4.65039 27.8376 4.65039 26.9686V7.55765C4.65039 6.43765 5.15039 5.50565 6.58239 5.38065L6.58339 5.37965Z" fill="black"/>
</g>
<defs>
<clipPath id="clip0_150_1158">
<rect width="32" height="32" fill="white" transform="translate(4 4)"/>
</clipPath>
</defs>
</svg>
