<svg width="40" height="40" viewBox="0 0 40 40" fill="none" xmlns="http://www.w3.org/2000/svg">
<path d="M0 4C0 1.79086 1.79086 0 4 0H36C38.2091 0 40 1.79086 40 4V36C40 38.2091 38.2091 40 36 40H4C1.79086 40 0 38.2091 0 36V4Z" fill="white"/>
<g clip-path="url(#clip0_150_1002)">
<path d="M20.0562 16.9062C18.3635 16.9062 16.9912 18.2785 16.9912 19.9713C16.9912 21.664 18.3635 23.0363 20.0562 23.0363C21.749 23.0363 23.1213 21.664 23.1213 19.9713C23.1213 18.2785 21.749 16.9062 20.0562 16.9062Z" fill="#58C4DC"/>
<path d="M35.9977 19.9994C35.9977 17.5931 33.7694 15.4827 30.2215 14.0938C30.2689 13.781 30.3118 13.4716 30.3423 13.1679C30.6923 9.71032 29.8592 7.21483 27.9977 6.13985C25.9151 4.93728 22.9733 5.81013 19.9989 8.19045C17.0244 5.81013 14.0827 4.93728 12 6.13985C10.1386 7.21483 9.30549 9.71032 9.65543 13.1679C9.6859 13.4716 9.72767 13.7821 9.77621 14.0961C9.48046 14.209 9.19035 14.3287 8.91153 14.454C5.74404 15.8779 4 17.8495 4 19.9994C4 22.4057 6.22831 24.5161 9.77621 25.905C9.72767 26.2178 9.6859 26.5272 9.65543 26.831C9.30549 30.2885 10.1386 32.784 12 33.859C12.64 34.2219 13.3652 34.4074 14.1007 34.3965C15.864 34.3965 17.923 33.4683 19.9989 31.8084C22.0737 33.4683 24.1338 34.3965 25.8993 34.3965C26.6348 34.4073 27.36 34.2217 28 33.859C29.8614 32.784 30.6945 30.2885 30.3446 26.831C30.3141 26.5272 30.2712 26.2178 30.2238 25.905C33.7717 24.5184 36 22.4046 36 19.9994M25.8857 7.12676C26.3587 7.11535 26.8262 7.22992 27.2403 7.45874C28.5328 8.20513 29.113 10.2297 28.8308 13.0132C28.8116 13.2029 28.7891 13.3948 28.762 13.5879C27.2867 13.1435 25.7761 12.8266 24.2466 12.6405C23.3195 11.4078 22.2885 10.2567 21.1649 9.19993C22.9293 7.83588 24.5853 7.12676 25.8846 7.12676M25.2784 23.0482C24.7075 24.0394 24.0858 25.0005 23.4158 25.9276C22.2802 26.0443 21.1393 26.1023 19.9977 26.1015C18.8565 26.1023 17.716 26.0443 16.5808 25.9276C15.9126 25.0005 15.2928 24.0394 14.7239 23.0482C14.153 22.0597 13.6341 21.0421 13.1695 19.9994C13.6341 18.9567 14.153 17.9391 14.7239 16.9506C15.2919 15.9634 15.9098 15.0058 16.5751 14.0814C17.7125 13.9618 18.8553 13.9022 19.9989 13.903C21.1401 13.9023 22.2806 13.9603 23.4158 14.0769C24.0835 15.0027 24.7036 15.9618 25.2739 16.9506C25.8443 17.9393 26.3632 18.957 26.8283 19.9994C26.3632 21.0419 25.8443 22.0595 25.2739 23.0482M27.6049 21.919C27.9632 22.8962 28.2573 23.8958 28.4854 24.9113C27.4955 25.22 26.4864 25.4633 25.4647 25.6397C25.853 25.054 26.2292 24.4446 26.5935 23.8115C26.9536 23.186 27.2911 22.5547 27.6094 21.9235M17.8552 27.557C18.5574 27.5999 19.2742 27.6248 20 27.6248C20.7258 27.6248 21.4472 27.5999 22.1504 27.557C21.4836 28.3559 20.7653 29.1103 20 29.8154C19.2364 29.1104 18.5199 28.356 17.8552 27.557ZM14.5342 25.6374C13.5121 25.4619 12.5026 25.2193 11.5123 24.9113C11.7395 23.8974 12.0325 22.8994 12.3894 21.9235C12.7033 22.5547 13.0397 23.186 13.4054 23.8115C13.7711 24.4371 14.1493 25.0536 14.5342 25.6397M12.3894 18.0742C12.0338 17.102 11.7416 16.1077 11.5146 15.0976C12.5024 14.7893 13.5092 14.5453 14.5286 14.3671C14.1425 14.9508 13.7644 15.5561 13.3997 16.1873C13.0351 16.8185 12.7021 17.4418 12.3838 18.0742M22.1436 12.4407C21.4415 12.3978 20.7247 12.3729 19.9932 12.3729C19.2678 12.3729 18.5528 12.3955 17.8485 12.4407C18.5131 11.6417 19.2296 10.8873 19.9932 10.1823C20.7588 10.8871 21.4772 11.6415 22.1436 12.4407ZM26.5912 16.1873C26.2255 15.5535 25.8473 14.9437 25.4568 14.358C26.4812 14.5344 27.493 14.778 28.4854 15.0875C28.2577 16.1013 27.9647 17.0993 27.6083 18.0753C27.2945 17.4441 26.957 16.8129 26.5924 16.1884M11.1714 13.0143C10.8858 10.232 11.4695 8.20625 12.7608 7.45987C13.1751 7.2314 13.6425 7.11685 14.1154 7.12789C15.4147 7.12789 17.0707 7.83701 18.8351 9.20106C17.7107 10.2586 16.679 11.4104 15.7511 12.6439C14.2221 12.8308 12.7116 13.1466 11.2358 13.5879C11.2098 13.3948 11.1861 13.204 11.1681 13.0143M9.5369 15.844C9.71074 15.7687 9.88796 15.6935 10.0686 15.6182C10.4237 17.1167 10.9051 18.5823 11.5078 19.9994C10.904 21.4193 10.4221 22.888 10.0674 24.3897C7.1912 23.2097 5.52392 21.5746 5.52392 19.9994C5.52392 18.5066 6.99139 16.9924 9.5369 15.844ZM12.7608 32.539C11.4695 31.7926 10.8858 29.7668 11.1714 26.9845C11.1895 26.7948 11.2132 26.604 11.2392 26.4098C12.7144 26.8541 14.2251 27.171 15.7545 27.3571C16.6819 28.5904 17.7129 29.7422 18.8362 30.8C16.3765 32.7004 14.129 33.3271 12.7642 32.539M28.8297 26.9845C29.1119 29.7679 28.5317 31.7926 27.2392 32.539C25.8755 33.3294 23.6269 32.7004 21.1683 30.8C22.2913 29.7422 23.3219 28.5904 24.2489 27.3571C25.7783 27.1711 27.289 26.8542 28.7642 26.4098C28.7913 26.604 28.8139 26.7948 28.8331 26.9845M29.9371 24.3874C29.5814 22.8866 29.0992 21.4187 28.4956 19.9994C29.0989 18.5794 29.5808 17.1107 29.9359 15.6092C32.8065 16.7892 34.4783 18.4242 34.4783 19.9994C34.4783 21.5746 32.8111 23.2097 29.9348 24.3897" fill="#58C4DC"/>
</g>
<defs>
<clipPath id="clip0_150_1002">
<rect width="32" height="28.7944" fill="white" transform="translate(4 5.60254)"/>
</clipPath>
</defs>
</svg>
