<svg width="40" height="40" viewBox="0 0 40 40" fill="none" xmlns="http://www.w3.org/2000/svg">
<rect width="40" height="40" rx="4" fill="#007AF4"/>
<g clip-path="url(#clip0_150_1092)">
<path d="M34.8663 -0.513672H6.15785C3.89282 -0.513672 2.05664 1.32311 2.05664 3.58889V34.3581C2.05664 36.6239 3.89282 38.4607 6.15785 38.4607H34.8663C37.1314 38.4607 38.9676 36.6239 38.9676 34.3581V3.58889C38.9676 1.32311 37.1314 -0.513672 34.8663 -0.513672Z" fill="#007AF4"/>
<path d="M19.8982 10.1538C21.597 10.1538 22.9741 8.77626 22.9741 7.07692C22.9741 5.37759 21.597 4 19.8982 4C18.1994 4 16.8223 5.37759 16.8223 7.07692C16.8223 8.77626 18.1994 10.1538 19.8982 10.1538Z" fill="white"/>
<path d="M19.8982 36.0005C21.597 36.0005 22.9741 34.6229 22.9741 32.9236C22.9741 31.2243 21.597 29.8467 19.8982 29.8467C18.1994 29.8467 16.8223 31.2243 16.8223 32.9236C16.8223 34.6229 18.1994 36.0005 19.8982 36.0005Z" fill="white"/>
<path d="M20.1016 9.74316C19.4869 14.6662 25.6387 13.4355 25.6387 16.9227C25.6387 18.9739 23.228 19.5339 20.1016 19.7944C17.6409 19.9996 14.3604 19.9996 14.3604 23.2816C14.3604 26.5637 20.9223 25.538 20.1016 30.256M16.055 13.17C16.055 19.4424 25.5493 20.6732 25.5493 26.5526" stroke="white" stroke-width="1.59591"/>
</g>
<defs>
<clipPath id="clip0_150_1092">
<rect width="30.3004" height="32" fill="white" transform="translate(4.84961 4)"/>
</clipPath>
</defs>
</svg>
