<svg width="40" height="40" viewBox="0 0 40 40" fill="none" xmlns="http://www.w3.org/2000/svg">
<rect width="40" height="40" rx="4" fill="white"/>
<g clip-path="url(#clip0_150_1042)">
<mask id="mask0_150_1042" style="mask-type:luminance" maskUnits="userSpaceOnUse" x="4" y="10" width="32" height="20">
<path d="M4 10.2227H36V29.4227H4V10.2227Z" fill="white"/>
</mask>
<g mask="url(#mask0_150_1042)">
<path fill-rule="evenodd" clip-rule="evenodd" d="M20 10.2227C15.7333 10.2227 13.0667 12.356 12 16.6227C13.6 14.4893 15.4667 13.6893 17.6 14.2227C18.8172 14.5267 19.6871 15.4102 20.6501 16.3874C22.2187 17.9797 24.0344 19.8227 28 19.8227C32.2667 19.8227 34.9333 17.6893 36 13.4227C34.4 15.556 32.5333 16.356 30.4 15.8227C29.1828 15.5187 28.3129 14.6351 27.3499 13.6579C25.7813 12.0656 23.9656 10.2227 20 10.2227ZM12 19.8227C7.73333 19.8227 5.06667 21.956 4 26.2227C5.6 24.0893 7.46667 23.2893 9.6 23.8227C10.8172 24.1273 11.6871 25.0102 12.6501 25.9874C14.2187 27.5797 16.0344 29.4227 20 29.4227C24.2667 29.4227 26.9333 27.2893 28 23.0227C26.4 25.156 24.5333 25.956 22.4 25.4227C21.1828 25.1187 20.3129 24.2351 19.3499 23.2579C17.7813 21.6656 15.9656 19.8227 12 19.8227Z" fill="#38BDF8"/>
</g>
</g>
<defs>
<clipPath id="clip0_150_1042">
<rect width="32" height="19.5556" fill="white" transform="translate(4 10.2227)"/>
</clipPath>
</defs>
</svg>
